<svg version="1.1" id="Layer_1" xmlns="http://www.w3.org/2000/svg" xmlns:xlink="http://www.w3.org/1999/xlink" x="0px" y="0px"
	 width="100%" viewBox="0 0 280 300" enable-background="new 0 0 280 300" xml:space="preserve">
<path fill="#655561" opacity="1.000000" stroke="none" 
	d="
M1.000000,261.000000 
	C1.000000,187.979111 1.000000,114.958214 1.468166,41.487030 
	C8.329181,41.060173 14.722028,41.083607 21.143845,41.568283 
	C21.183247,101.626701 21.193684,161.223877 21.159096,221.297150 
	C21.079803,234.849350 21.045534,247.925430 20.542347,261.016296 
	C13.715621,261.020721 7.357810,261.010376 1.000000,261.000000 
z"/>
<path fill="#655561" opacity="1.000000" stroke="none" 
	d="
M281.000000,41.000000 
	C281.000000,114.020897 281.000000,187.041794 280.531677,260.541748 
	C273.711151,261.021332 267.358887,261.021851 260.977386,260.552734 
	C260.907440,247.008072 260.866760,233.933090 260.865112,220.399841 
	C260.908691,160.320389 260.913239,100.699226 261.390625,41.051071 
	C268.242340,41.016048 274.621155,41.008022 281.000000,41.000000 
z"/>
<path fill="#655661" opacity="1.000000" stroke="none" 
	d="
M41.000000,1.000000 
	C107.354225,1.000000 173.708450,1.000000 240.502075,1.467681 
	C240.936630,8.318038 240.931778,14.700715 240.462769,21.094055 
	C173.694092,21.099806 107.389580,21.094894 41.068558,20.616199 
	C41.034695,13.761611 41.017345,7.380805 41.000000,1.000000 
z"/>
<path fill="#655561" opacity="1.000000" stroke="none" 
	d="
M241.000000,301.000000 
	C174.645767,301.000000 108.291542,301.000000 41.506287,300.532837 
	C41.048737,293.707397 41.022213,287.349121 41.464905,280.982056 
	C108.303772,280.991669 174.673431,281.010071 241.025436,281.494934 
	C241.005203,288.307587 241.002594,294.653809 241.000000,301.000000 
z"/>
<path fill="#010101" opacity="1.000000" stroke="none" 
	d="
M240.926910,21.083391 
	C240.931778,14.700715 240.936630,8.318038 240.970734,1.467681 
	C247.687637,1.000000 254.375290,1.000000 261.532471,1.468406 
	C262.002045,7.801800 262.002045,13.666786 262.002045,20.000000 
	C268.864075,20.000000 274.932037,20.000000 281.000000,20.000000 
	C281.000000,26.687645 281.000000,33.375290 281.000000,40.531467 
	C274.621155,41.008022 268.242340,41.016048 261.413239,41.035225 
	C260.962982,41.046371 260.925049,41.083485 260.948120,40.610199 
	C260.952240,35.033043 260.843079,29.927273 260.950836,24.826080 
	C261.008484,22.097010 259.991272,20.966278 257.214539,21.027958 
	C251.784393,21.148579 246.349792,21.068134 240.954941,21.041464 
	C240.992844,21.012003 240.926910,21.083391 240.926910,21.083391 
z"/>
<path fill="#010001" opacity="1.000000" stroke="none" 
	d="
M40.531464,1.000000 
	C41.017345,7.380805 41.034695,13.761611 41.030609,20.578024 
	C41.009178,21.013632 41.089333,21.082197 40.615902,21.055103 
	C35.036770,21.037779 29.928839,21.141361 24.826260,21.019976 
	C22.037987,20.953646 21.041876,22.082933 21.099350,24.812151 
	C21.213745,30.244249 21.115051,35.680836 21.063511,41.069504 
	C21.022635,41.023438 21.114876,41.107044 21.114876,41.107040 
	C14.722028,41.083607 8.329181,41.060173 1.468166,41.018372 
	C1.000000,34.312355 1.000000,27.624710 1.468406,20.467499 
	C7.801931,19.997931 13.667048,19.997931 20.000000,19.997931 
	C20.000000,13.137212 20.000000,7.068606 20.000000,1.000000 
	C26.687645,1.000000 33.375290,1.000000 40.531464,1.000000 
z"/>
<path fill="#010101" opacity="1.000000" stroke="none" 
	d="
M40.995689,280.990845 
	C41.022213,287.349121 41.048737,293.707397 41.037628,300.532837 
	C34.312355,301.000000 27.624710,301.000000 20.466953,300.531586 
	C19.996843,294.198486 19.996843,288.333801 19.996843,282.000000 
	C13.135236,282.000000 7.067618,282.000000 1.000000,282.000000 
	C1.000000,275.312347 1.000000,268.624725 1.000000,261.468567 
	C7.357810,261.010376 13.715621,261.020721 20.537817,261.013245 
	C21.002203,260.995422 20.994833,260.991089 21.017723,261.460083 
	C21.070183,266.423035 21.360693,270.934937 21.053934,275.405823 
	C20.763084,279.644897 21.922621,281.506012 26.531275,281.120514 
	C31.325911,280.719482 36.178886,281.015961 41.005516,281.002747 
	C41.004677,280.998047 40.995693,280.990845 40.995689,280.990845 
z"/>
<path fill="#010101" opacity="1.000000" stroke="none" 
	d="
M241.468536,301.000000 
	C241.002594,294.653809 241.005203,288.307587 241.005951,281.489075 
	C241.004089,281.016754 241.027725,281.047638 241.494629,281.053711 
	C246.952423,281.048004 251.947327,280.910675 256.932678,281.070831 
	C259.993988,281.169189 261.034607,279.962067 260.962585,276.976349 
	C260.834290,271.657318 260.989685,266.331451 261.014740,261.001343 
	C261.003021,260.994293 261.006653,261.022400 261.006653,261.022400 
	C267.358887,261.021851 273.711151,261.021332 280.531677,261.010376 
	C281.000000,267.687653 281.000000,274.375275 280.531586,281.532715 
	C274.198853,282.002533 268.334503,282.002533 262.000000,282.002533 
	C262.000000,288.865326 262.000000,294.932678 262.000000,301.000000 
	C255.312363,301.000000 248.624710,301.000000 241.468536,301.000000 
z"/>
<path fill="#47704C" opacity="1.000000" stroke="none" 
	d="
M1.000000,282.469360 
	C7.067618,282.000000 13.135236,282.000000 19.996843,282.000000 
	C19.996843,288.333801 19.996843,294.198486 19.998421,300.531586 
	C13.740767,301.000000 7.481534,301.000000 1.000000,301.000000 
	C1.000000,294.981384 1.000000,288.960083 1.000000,282.469360 
z"/>
<path fill="#47704C" opacity="1.000000" stroke="none" 
	d="
M262.469360,301.000000 
	C262.000000,294.932678 262.000000,288.865326 262.000000,282.002533 
	C268.334503,282.002533 274.198853,282.002533 280.531586,282.001282 
	C281.000000,288.259247 281.000000,294.518463 281.000000,301.000000 
	C274.981384,301.000000 268.960083,301.000000 262.469360,301.000000 
z"/>
<path fill="#47704C" opacity="1.000000" stroke="none" 
	d="
M281.000000,19.530624 
	C274.932037,20.000000 268.864075,20.000000 262.002045,20.000000 
	C262.002045,13.666786 262.002045,7.801800 262.001038,1.468406 
	C268.259247,1.000000 274.518463,1.000000 281.000000,1.000000 
	C281.000000,7.018606 281.000000,13.039927 281.000000,19.530624 
z"/>
<path fill="#47704C" opacity="1.000000" stroke="none" 
	d="
M19.530624,1.000000 
	C20.000000,7.068606 20.000000,13.137212 20.000000,19.997931 
	C13.667048,19.997931 7.801931,19.997931 1.468406,19.998966 
	C1.000000,13.740766 1.000000,7.481532 1.000000,1.000000 
	C7.018606,1.000000 13.039927,1.000000 19.530624,1.000000 
z"/>
<path fill="#FEFEFE" opacity="1.000000" stroke="none" 
	d="
M41.047123,21.051807 
	C107.389580,21.094894 173.694092,21.099806 240.462769,21.094055 
	C240.926910,21.083391 240.992844,21.012003 240.940399,21.505463 
	C240.887970,28.220882 240.887970,34.442844 240.887970,41.083485 
	C248.073120,41.083485 254.499084,41.083485 260.925049,41.083485 
	C260.925049,41.083485 260.962982,41.046371 260.940369,41.062222 
	C260.913239,100.699226 260.908691,160.320389 260.411194,220.443909 
	C253.806839,220.946259 247.695419,220.946259 240.786682,220.946259 
	C240.786682,228.029022 240.786682,234.392624 240.786682,240.553802 
	C173.798843,240.553802 107.621552,240.553802 40.787331,240.553802 
	C40.787331,233.836517 40.787331,227.609879 40.787331,220.821045 
	C33.823364,220.821045 27.513742,220.821045 21.204121,220.821045 
	C21.193684,161.223877 21.183247,101.626701 21.143845,41.568283 
	C21.114876,41.107044 21.022635,41.023438 21.525700,41.072536 
	C28.252356,41.121635 34.475948,41.121635 41.089333,41.121635 
	C41.089333,33.930702 41.089333,27.506449 41.089333,21.082197 
	C41.089333,21.082197 41.009178,21.013632 41.047123,21.051807 
M81.048134,87.627716 
	C81.048134,111.996254 81.048134,136.364792 81.048134,160.810394 
	C88.054192,160.810394 94.300659,160.810394 100.807915,160.810394 
	C100.807915,134.210770 100.807915,107.880447 100.807915,81.392830 
	C94.150093,81.392830 87.789909,81.392830 81.048088,81.392830 
	C81.048088,83.390579 81.048088,85.028214 81.048134,87.627716 
M200.996246,108.500000 
	C200.996246,99.433205 200.996246,90.366402 200.996246,81.315536 
	C193.938049,81.315536 187.692871,81.315536 181.258606,81.315536 
	C181.258606,107.940971 181.258606,134.273132 181.258606,160.693359 
	C187.933060,160.693359 194.295090,160.693359 200.996246,160.693359 
	C200.996246,143.373047 200.996246,126.436523 200.996246,108.500000 
z"/>
<path fill="#7D929E" opacity="1.000000" stroke="none" 
	d="
M21.159096,221.297150 
	C27.513742,220.821045 33.823364,220.821045 40.787331,220.821045 
	C40.787331,227.609879 40.787331,233.836517 40.787331,240.553802 
	C107.621552,240.553802 173.798843,240.553802 240.786682,240.553802 
	C240.786682,234.392624 240.786682,228.029022 240.786682,220.946259 
	C247.695419,220.946259 253.806839,220.946259 260.372192,220.902191 
	C260.866760,233.933090 260.907440,247.008072 260.977386,260.552734 
	C261.006653,261.022400 261.003021,260.994293 260.544250,260.992096 
	C255.270813,261.007355 250.452179,261.150543 245.642807,260.999329 
	C242.270432,260.893280 240.788132,262.112488 240.918640,265.610016 
	C241.110413,270.750092 241.005966,275.901215 241.027725,281.047638 
	C241.027725,281.047638 241.004089,281.016754 241.023590,281.022644 
	C174.673431,281.010071 108.303772,280.991669 41.464909,280.982056 
	C40.995693,280.990845 41.004677,280.998047 41.031559,280.534058 
	C41.056118,275.095551 40.976475,270.119385 41.080460,265.147064 
	C41.142891,262.161713 39.844528,260.980896 36.912239,261.025055 
	C31.607813,261.105042 26.300779,261.011932 20.994833,260.991089 
	C20.994833,260.991089 21.002203,260.995422 21.006733,260.998474 
	C21.045534,247.925430 21.079803,234.849350 21.159096,221.297150 
z"/>
<path fill="#655561" opacity="1.000000" stroke="none" 
	d="
M260.948120,40.610199 
	C254.499084,41.083485 248.073120,41.083485 240.887970,41.083485 
	C240.887970,34.442844 240.887970,28.220882 240.902496,21.534924 
	C246.349792,21.068134 251.784393,21.148579 257.214539,21.027958 
	C259.991272,20.966278 261.008484,22.097010 260.950836,24.826080 
	C260.843079,29.927273 260.952240,35.033043 260.948120,40.610199 
z"/>
<path fill="#645560" opacity="1.000000" stroke="none" 
	d="
M40.615902,21.055103 
	C41.089333,27.506449 41.089333,33.930702 41.089333,41.121635 
	C34.475948,41.121635 28.252356,41.121635 21.566578,41.118603 
	C21.115051,35.680836 21.213745,30.244249 21.099350,24.812151 
	C21.041876,22.082933 22.037987,20.953646 24.826260,21.019976 
	C29.928839,21.141361 35.036770,21.037779 40.615902,21.055103 
z"/>
<path fill="#645460" opacity="1.000000" stroke="none" 
	d="
M21.017723,261.460083 
	C26.300779,261.011932 31.607813,261.105042 36.912239,261.025055 
	C39.844528,260.980896 41.142891,262.161713 41.080460,265.147064 
	C40.976475,270.119385 41.056118,275.095551 41.032398,280.538788 
	C36.178886,281.015961 31.325911,280.719482 26.531275,281.120514 
	C21.922621,281.506012 20.763084,279.644897 21.053934,275.405823 
	C21.360693,270.934937 21.070183,266.423035 21.017723,261.460083 
z"/>
<path fill="#645460" opacity="1.000000" stroke="none" 
	d="
M241.494629,281.053711 
	C241.005966,275.901215 241.110413,270.750092 240.918640,265.610016 
	C240.788132,262.112488 242.270432,260.893280 245.642807,260.999329 
	C250.452179,261.150543 255.270813,261.007355 260.555969,260.999146 
	C260.989685,266.331451 260.834290,271.657318 260.962585,276.976349 
	C261.034607,279.962067 259.993988,281.169189 256.932678,281.070831 
	C251.947327,280.910675 246.952423,281.048004 241.494629,281.053711 
z"/>
<path fill="#675763" opacity="1.000000" stroke="none" 
	d="
M81.048111,87.146782 
	C81.048088,85.028214 81.048088,83.390579 81.048088,81.392830 
	C87.789909,81.392830 94.150093,81.392830 100.807915,81.392830 
	C100.807915,107.880447 100.807915,134.210770 100.807915,160.810394 
	C94.300659,160.810394 88.054192,160.810394 81.048134,160.810394 
	C81.048134,136.364792 81.048134,111.996254 81.048111,87.146782 
z"/>
<path fill="#675763" opacity="1.000000" stroke="none" 
	d="
M200.996246,109.000000 
	C200.996246,126.436523 200.996246,143.373047 200.996246,160.693359 
	C194.295090,160.693359 187.933060,160.693359 181.258606,160.693359 
	C181.258606,134.273132 181.258606,107.940971 181.258606,81.315536 
	C187.692871,81.315536 193.938049,81.315536 200.996246,81.315536 
	C200.996246,90.366402 200.996246,99.433205 200.996246,109.000000 
z"/>
</svg>