<svg version="1.1" id="Layer_1" xmlns="http://www.w3.org/2000/svg" xmlns:xlink="http://www.w3.org/1999/xlink" x="0px" y="0px"
	 width="100%" viewBox="0 0 2048 1479" enable-background="new 0 0 2048 1479" xml:space="preserve">
<path fill="#2396ED" opacity="1.000000" stroke="none" 
	d="
M2049.000000,589.000000 
	C2049.000000,591.700012 2049.000000,594.400024 2048.757324,597.208130 
	C2045.355713,602.929749 2041.852295,608.381226 2039.115356,614.193481 
	C2034.669922,623.634033 2030.856323,633.370300 2026.515869,642.862854 
	C2024.365967,647.564941 2021.691650,652.032959 2019.156372,656.551819 
	C2014.899902,664.138916 2010.777832,671.814148 2006.196167,679.202332 
	C2002.446777,685.248840 1998.391113,691.154663 1993.964111,696.719543 
	C1988.141968,704.038391 1981.955322,711.082092 1975.669067,718.011475 
	C1971.762085,722.318237 1967.571777,726.416016 1963.169678,730.214539 
	C1955.856323,736.525085 1948.616943,743.019287 1940.704712,748.511475 
	C1932.106323,754.479797 1922.926147,759.668823 1913.721802,764.688049 
	C1904.536255,769.697021 1895.367676,775.122253 1885.550903,778.506653 
	C1866.442627,785.094360 1847.185913,791.067078 1827.016479,794.431519 
	C1807.968018,797.609070 1788.968994,799.484680 1769.759888,799.955444 
	C1759.571167,800.205139 1749.358032,800.314209 1739.181763,799.880371 
	C1733.232056,799.626709 1728.877686,800.476807 1728.182617,807.370178 
	C1728.150391,807.690308 1728.042114,808.013855 1727.913330,808.311584 
	C1723.935181,817.506714 1720.006592,826.723816 1715.951416,835.884949 
	C1711.230347,846.550598 1706.491943,857.210571 1701.583618,867.790710 
	C1697.509521,876.572815 1693.217285,885.254883 1688.949097,893.945435 
	C1685.020630,901.943909 1681.187134,909.998413 1676.957031,917.836731 
	C1672.894653,925.364624 1668.272583,932.588196 1664.084717,940.051270 
	C1658.175293,950.582520 1652.573975,961.288147 1646.579346,971.769531 
	C1642.888916,978.222412 1638.706421,984.393616 1634.753784,990.696960 
	C1629.144531,999.642273 1623.856445,1008.808899 1617.866089,1017.491150 
	C1608.559814,1030.979126 1598.809937,1044.162231 1589.184937,1057.428589 
	C1583.705566,1064.980957 1578.246094,1072.555298 1572.519165,1079.918701 
	C1563.582031,1091.409912 1554.513550,1102.802246 1545.328735,1114.096558 
	C1539.663330,1121.063354 1533.806763,1127.885986 1527.793823,1134.555054 
	C1523.578857,1139.229980 1518.872437,1143.457886 1514.530029,1148.022827 
	C1504.491089,1158.576294 1494.746094,1169.417969 1484.486328,1179.749756 
	C1476.692261,1187.598267 1468.269409,1194.820801 1460.162109,1202.360352 
	C1453.976562,1208.112549 1448.055420,1214.168213 1441.646729,1219.656982 
	C1430.422485,1229.270508 1418.939331,1238.582764 1407.515869,1247.961914 
	C1400.684448,1253.570923 1393.937256,1259.306519 1386.831909,1264.551636 
	C1378.435669,1270.749756 1369.698486,1276.486450 1361.100830,1282.411255 
	C1354.970947,1286.635742 1348.864624,1290.895874 1342.679810,1295.038818 
	C1336.759644,1299.004639 1330.739746,1302.821045 1324.785522,1306.736450 
	C1315.638428,1312.751587 1306.698364,1319.108765 1297.322388,1324.741577 
	C1287.255981,1330.788818 1276.801514,1336.192627 1266.489624,1341.828247 
	C1258.681763,1346.095093 1250.940918,1350.504761 1242.974487,1354.456177 
	C1231.694580,1360.051147 1220.232056,1365.277954 1208.852051,1370.671631 
	C1199.516968,1375.096069 1190.341675,1379.901245 1180.821655,1383.882202 
	C1165.656616,1390.223755 1150.290039,1396.088257 1134.957886,1402.023193 
	C1125.190552,1405.803955 1115.330811,1409.345825 1105.514038,1412.998901 
	C1099.289429,1415.315186 1093.171387,1417.985962 1086.822510,1419.886108 
	C1074.292236,1423.636230 1061.611938,1426.881348 1049.037354,1430.487671 
	C1039.567017,1433.203857 1030.264771,1436.562012 1020.710938,1438.917725 
	C1003.245544,1443.224121 985.645630,1446.983398 968.110107,1451.007202 
	C962.574158,1452.277466 957.112061,1453.922363 951.533203,1454.942017 
	C940.324402,1456.990723 929.062439,1458.751221 917.815308,1460.586792 
	C902.539978,1463.079712 887.280334,1465.683350 871.969116,1467.934692 
	C864.672302,1469.007690 857.246277,1469.176270 849.924500,1470.111816 
	C838.425232,1471.581421 827.009827,1473.876099 815.476929,1474.873657 
	C798.394104,1476.351196 781.237488,1476.967163 764.120605,1478.078613 
	C763.043335,1478.148560 762.038513,1479.333618 761.000000,1480.000000 
	C711.312439,1480.000000 661.624878,1480.000000 611.732666,1479.617432 
	C610.844543,1478.834106 610.190674,1478.150146 609.473267,1478.075317 
	C599.190125,1477.003662 588.886536,1476.120728 578.611389,1474.980713 
	C561.375183,1473.068726 544.086243,1471.465576 526.949585,1468.872803 
	C510.723724,1466.417969 494.580475,1463.237305 478.559357,1459.665283 
	C465.469971,1456.746948 452.556366,1452.978760 439.674286,1449.212891 
	C430.523376,1446.537842 421.540100,1443.282104 412.508148,1440.208740 
	C401.536224,1436.475220 390.481323,1432.948242 379.669312,1428.793213 
	C370.473785,1425.259766 361.494080,1421.128906 352.561401,1416.957153 
	C343.139557,1412.557251 333.740448,1408.065918 324.598450,1403.120728 
	C314.095490,1397.439453 303.861694,1391.257324 293.556213,1385.215576 
	C286.191681,1380.897827 278.655853,1376.810303 271.635651,1371.981689 
	C260.928040,1364.616821 250.514511,1356.813477 240.141418,1348.977417 
	C233.519073,1343.974854 227.100494,1338.688965 220.769165,1333.319458 
	C216.238800,1329.477539 212.019714,1325.269897 207.635025,1321.254517 
	C200.574509,1314.788818 193.011871,1308.792725 186.520020,1301.800903 
	C173.520401,1287.800171 161.006012,1273.343018 148.484695,1258.906616 
	C142.539978,1252.052490 136.839417,1244.963013 131.403091,1237.699585 
	C127.262039,1232.166748 123.736832,1226.175049 119.892944,1220.417358 
	C113.811569,1211.307861 107.345383,1202.433594 101.684753,1193.071167 
	C95.694649,1183.163940 90.448906,1172.806030 84.891617,1162.637695 
	C80.393242,1154.406982 75.439789,1146.383545 71.532425,1137.880371 
	C64.649750,1122.901978 58.389462,1107.636841 51.915878,1092.471680 
	C49.883419,1087.710449 47.722031,1082.976562 46.108948,1078.069336 
	C42.377178,1066.716919 38.931278,1055.270264 35.394920,1043.853882 
	C32.573273,1034.744873 29.562040,1025.686401 27.051350,1016.491760 
	C24.449474,1006.963135 22.364700,997.293701 20.022852,987.693420 
	C18.715761,982.335083 17.054239,977.045288 16.065054,971.630981 
	C14.017264,960.422546 12.295442,949.154175 10.471075,937.905334 
	C8.957409,928.572327 7.200156,919.266602 6.075256,909.885925 
	C4.746469,898.804932 4.008355,887.653625 2.894717,876.544800 
	C2.837328,875.972351 1.657339,875.512329 1.000003,875.000000 
	C1.000000,836.979126 1.000000,798.958191 1.421206,760.448547 
	C2.131324,759.833801 2.652869,759.740479 2.675765,759.577148 
	C3.811021,751.483398 4.685049,743.345642 6.085335,735.299255 
	C6.883343,730.713745 7.568616,725.553894 10.185349,722.062012 
	C11.598054,720.176819 16.968813,721.032654 20.553923,721.032288 
	C395.374451,720.998230 770.195190,721.234192 1145.015381,720.839661 
	C1241.371704,720.738281 1337.760132,723.466980 1434.089600,718.955139 
	C1441.792725,718.594299 1449.589355,718.229980 1457.125610,716.756958 
	C1469.529297,714.332397 1481.727661,710.875610 1494.063721,708.080566 
	C1509.431519,704.598511 1524.329468,699.912415 1538.258057,692.377197 
	C1542.048950,690.326355 1546.007446,688.466614 1550.083496,687.098999 
	C1553.229736,686.043396 1553.658691,685.034485 1551.856812,682.257080 
	C1549.020996,677.886108 1546.260498,673.412292 1544.026611,668.716309 
	C1539.789551,659.808716 1535.700317,650.812561 1532.015259,641.665649 
	C1528.695312,633.424866 1525.486694,625.071777 1523.167358,616.513855 
	C1520.752808,607.605652 1519.137329,598.442017 1517.758301,589.301636 
	C1515.881470,576.861145 1513.446045,564.353577 1513.256958,551.844482 
	C1512.959473,532.165649 1514.099487,512.449585 1515.108276,492.773712 
	C1515.559448,483.971100 1516.656616,475.126129 1518.374512,466.482025 
	C1520.805908,454.248322 1523.688110,442.070312 1527.103516,430.075134 
	C1530.984741,416.443695 1535.480713,402.976654 1540.074829,389.563293 
	C1542.467651,382.576874 1545.359009,375.721741 1548.551514,369.059601 
	C1551.767700,362.347992 1555.442383,355.833069 1559.267578,349.442322 
	C1564.016113,341.509003 1569.010132,333.715454 1574.109253,326.001038 
	C1580.047852,317.016541 1586.433350,308.321716 1592.205933,299.235046 
	C1596.055298,293.175720 1596.921631,292.692474 1604.066528,296.738373 
	C1608.637939,299.327026 1612.664673,302.876892 1616.937622,305.993011 
	C1625.003906,311.875702 1633.167725,317.630341 1641.104126,323.683411 
	C1646.170166,327.547272 1650.886719,331.867706 1655.784912,335.953705 
	C1660.156616,339.600403 1664.903931,342.868896 1668.885010,346.897766 
	C1678.293945,356.419586 1687.468018,366.182617 1696.498291,376.066315 
	C1702.442505,382.572205 1708.125488,389.334229 1713.634521,396.214508 
	C1717.697632,401.289062 1721.537354,406.582153 1725.039429,412.057465 
	C1731.272461,421.802521 1737.582275,431.538422 1743.084961,441.697937 
	C1747.444092,449.746338 1750.951172,458.303284 1754.274780,466.852844 
	C1757.873657,476.110138 1761.266235,485.495850 1763.945435,495.050812 
	C1767.700562,508.443329 1770.713623,522.043945 1774.140381,535.946228 
	C1774.666504,535.946228 1775.868774,536.191528 1776.931274,535.909668 
	C1794.870972,531.151123 1813.346924,530.908997 1831.649902,530.221130 
	C1849.708740,529.542358 1867.839233,530.542664 1885.930542,531.066772 
	C1892.479736,531.256470 1899.039429,531.964050 1905.535889,532.859802 
	C1913.926147,534.016541 1922.276245,535.497925 1930.609497,537.025391 
	C1939.711670,538.693726 1949.045654,539.737976 1957.789307,542.566650 
	C1969.717041,546.425354 1981.609009,550.883545 1992.736938,556.601501 
	C2006.485474,563.665955 2019.395264,572.352600 2032.747559,580.202454 
	C2038.054688,583.322510 2043.576172,586.078308 2049.000000,589.000000 
z"/>
<path fill="#000000" opacity="1.000000" stroke="none" 
	d="
M2049.000000,588.531372 
	C2043.576172,586.078308 2038.054688,583.322510 2032.747559,580.202454 
	C2019.395264,572.352600 2006.485474,563.665955 1992.736938,556.601501 
	C1981.609009,550.883545 1969.717041,546.425354 1957.789307,542.566650 
	C1949.045654,539.737976 1939.711670,538.693726 1930.609497,537.025391 
	C1922.276245,535.497925 1913.926147,534.016541 1905.535889,532.859802 
	C1899.039429,531.964050 1892.479736,531.256470 1885.930542,531.066772 
	C1867.839233,530.542664 1849.708740,529.542358 1831.649902,530.221130 
	C1813.346924,530.908997 1794.870972,531.151123 1776.931274,535.909668 
	C1775.868774,536.191528 1774.666504,535.946228 1774.140381,535.946228 
	C1770.713623,522.043945 1767.700562,508.443329 1763.945435,495.050812 
	C1761.266235,485.495850 1757.873657,476.110138 1754.274780,466.852844 
	C1750.951172,458.303284 1747.444092,449.746338 1743.084961,441.697937 
	C1737.582275,431.538422 1731.272461,421.802521 1725.039429,412.057465 
	C1721.537354,406.582153 1717.697632,401.289062 1713.634521,396.214508 
	C1708.125488,389.334229 1702.442505,382.572205 1696.498291,376.066315 
	C1687.468018,366.182617 1678.293945,356.419586 1668.885010,346.897766 
	C1664.903931,342.868896 1660.156616,339.600403 1655.784912,335.953705 
	C1650.886719,331.867706 1646.170166,327.547272 1641.104126,323.683411 
	C1633.167725,317.630341 1625.003906,311.875702 1616.937622,305.993011 
	C1612.664673,302.876892 1608.637939,299.327026 1604.066528,296.738373 
	C1596.921631,292.692474 1596.055298,293.175720 1592.205933,299.235046 
	C1586.433350,308.321716 1580.047852,317.016541 1574.109253,326.001038 
	C1569.010132,333.715454 1564.016113,341.509003 1559.267578,349.442322 
	C1555.442383,355.833069 1551.767700,362.347992 1548.551514,369.059601 
	C1545.359009,375.721741 1542.467651,382.576874 1540.074829,389.563293 
	C1535.480713,402.976654 1530.984741,416.443695 1527.103516,430.075134 
	C1523.688110,442.070312 1520.805908,454.248322 1518.374512,466.482025 
	C1516.656616,475.126129 1515.559448,483.971100 1515.108276,492.773712 
	C1514.099487,512.449585 1512.959473,532.165649 1513.256958,551.844482 
	C1513.446045,564.353577 1515.881470,576.861145 1517.758301,589.301636 
	C1519.137329,598.442017 1520.752808,607.605652 1523.167358,616.513855 
	C1525.486694,625.071777 1528.695312,633.424866 1532.015259,641.665649 
	C1535.700317,650.812561 1539.789551,659.808716 1544.026611,668.716309 
	C1546.260498,673.412292 1549.020996,677.886108 1551.856812,682.257080 
	C1553.658691,685.034485 1553.229736,686.043396 1550.083496,687.098999 
	C1546.007446,688.466614 1542.048950,690.326355 1538.258057,692.377197 
	C1524.329468,699.912415 1509.431519,704.598511 1494.063721,708.080566 
	C1481.727661,710.875610 1469.529297,714.332397 1457.125610,716.756958 
	C1449.589355,718.229980 1441.792725,718.594299 1434.089600,718.955139 
	C1337.760132,723.466980 1241.371704,720.738281 1145.015381,720.839661 
	C770.195190,721.234192 395.374451,720.998230 20.553923,721.032288 
	C16.968813,721.032654 11.598054,720.176819 10.185349,722.062012 
	C7.568616,725.553894 6.883343,730.713745 6.085335,735.299255 
	C4.685049,743.345642 3.811021,751.483398 2.675765,759.577148 
	C2.652869,759.740479 2.131324,759.833801 1.421206,759.979858 
	C1.000000,507.066376 1.000000,254.132767 1.000000,1.000000 
	C303.354187,1.000000 605.708435,1.000000 908.531494,1.468657 
	C909.000305,68.514893 909.000305,135.092468 909.000305,201.679688 
	C980.302063,201.679688 1051.008179,201.679688 1122.000000,201.679688 
	C1122.000000,134.572800 1122.000000,67.786400 1122.000000,1.000000 
	C1430.910767,1.000000 1739.821655,1.000000 2049.000000,1.000000 
	C2049.000000,196.687485 2049.000000,392.375092 2049.000000,588.531372 
M1157.998779,530.500000 
	C1157.998779,581.252869 1157.998779,632.005676 1157.998779,682.615662 
	C1229.736694,682.615662 1300.790894,682.615662 1371.747559,682.615662 
	C1371.747559,615.293396 1371.747559,548.357117 1371.747559,481.296936 
	C1300.440186,481.296936 1229.386230,481.296936 1157.998779,481.296936 
	C1157.998779,497.560822 1157.998779,513.530396 1157.998779,530.500000 
M622.000488,401.500000 
	C622.000488,348.080872 622.000488,294.661774 622.000488,241.386780 
	C550.596313,241.386780 479.875732,241.386780 409.253265,241.386780 
	C409.253265,308.709503 409.253265,375.645599 409.253265,442.704346 
	C480.227081,442.704346 550.947571,442.704346 622.000488,442.704346 
	C622.000488,429.106445 622.000488,415.803223 622.000488,401.500000 
M871.999084,424.499268 
	C871.999084,363.414337 871.999084,302.329407 871.999084,241.386810 
	C800.595337,241.386810 729.875183,241.386810 659.253357,241.386810 
	C659.253357,308.709290 659.253357,375.645111 659.253357,442.704285 
	C730.226746,442.704285 800.946838,442.704285 871.999084,442.704285 
	C871.999084,436.774292 871.999084,431.136444 871.999084,424.499268 
M1121.999756,435.426239 
	C1121.999756,370.680511 1121.999756,305.934753 1121.999756,241.239258 
	C1050.657837,241.239258 980.054321,241.239258 909.283691,241.239258 
	C909.283691,308.533325 909.283691,375.588287 909.283691,442.671509 
	C980.289490,442.671509 1051.010986,442.671509 1121.999756,442.671509 
	C1121.999756,440.366943 1121.999756,438.386261 1121.999756,435.426239 
M622.000488,665.498535 
	C622.000488,604.080078 622.000488,542.661621 622.000488,481.386749 
	C550.596252,481.386749 479.875732,481.386749 409.253296,481.386749 
	C409.253296,548.709412 409.253296,615.645508 409.253296,682.703918 
	C480.227081,682.703918 550.947510,682.703918 622.000488,682.703918 
	C622.000488,677.107361 622.000488,671.802612 622.000488,665.498535 
M667.554077,683.001404 
	C735.634644,683.001404 803.715271,683.001404 871.768921,683.001404 
	C871.768921,615.342346 871.768921,548.405701 871.768921,481.277130 
	C800.817688,481.277130 730.096863,481.277130 659.322266,481.277130 
	C659.322266,548.608826 659.322266,615.663269 659.322266,683.001404 
	C661.952454,683.001404 664.263184,683.001404 667.554077,683.001404 
M1053.500000,683.001404 
	C1076.255005,683.001404 1099.010010,683.001404 1121.612061,683.001404 
	C1121.612061,615.260559 1121.612061,548.206482 1121.612061,481.256042 
	C1050.621582,481.256042 980.019287,481.256042 909.298950,481.256042 
	C909.298950,548.565796 909.298950,615.619507 909.298950,683.001404 
	C957.231445,683.001404 1004.865723,683.001404 1053.500000,683.001404 
M253.500000,481.000427 
	C222.412552,481.000427 191.325104,481.000427 160.386551,481.000427 
	C160.386551,548.741638 160.386551,615.795776 160.386551,682.747559 
	C231.042770,682.747559 301.312164,682.747559 371.701111,682.747559 
	C371.701111,615.439636 371.701111,548.385986 371.701111,481.000427 
	C332.435638,481.000427 293.467834,481.000427 253.500000,481.000427 
z"/>
<path fill="#000000" opacity="1.000000" stroke="none" 
	d="
M761.468628,1480.000000 
	C762.038513,1479.333618 763.043335,1478.148560 764.120605,1478.078613 
	C781.237488,1476.967163 798.394104,1476.351196 815.476929,1474.873657 
	C827.009827,1473.876099 838.425232,1471.581421 849.924500,1470.111816 
	C857.246277,1469.176270 864.672302,1469.007690 871.969116,1467.934692 
	C887.280334,1465.683350 902.539978,1463.079712 917.815308,1460.586792 
	C929.062439,1458.751221 940.324402,1456.990723 951.533203,1454.942017 
	C957.112061,1453.922363 962.574158,1452.277466 968.110107,1451.007202 
	C985.645630,1446.983398 1003.245544,1443.224121 1020.710938,1438.917725 
	C1030.264771,1436.562012 1039.567017,1433.203857 1049.037354,1430.487671 
	C1061.611938,1426.881348 1074.292236,1423.636230 1086.822510,1419.886108 
	C1093.171387,1417.985962 1099.289429,1415.315186 1105.514038,1412.998901 
	C1115.330811,1409.345825 1125.190552,1405.803955 1134.957886,1402.023193 
	C1150.290039,1396.088257 1165.656616,1390.223755 1180.821655,1383.882202 
	C1190.341675,1379.901245 1199.516968,1375.096069 1208.852051,1370.671631 
	C1220.232056,1365.277954 1231.694580,1360.051147 1242.974487,1354.456177 
	C1250.940918,1350.504761 1258.681763,1346.095093 1266.489624,1341.828247 
	C1276.801514,1336.192627 1287.255981,1330.788818 1297.322388,1324.741577 
	C1306.698364,1319.108765 1315.638428,1312.751587 1324.785522,1306.736450 
	C1330.739746,1302.821045 1336.759644,1299.004639 1342.679810,1295.038818 
	C1348.864624,1290.895874 1354.970947,1286.635742 1361.100830,1282.411255 
	C1369.698486,1276.486450 1378.435669,1270.749756 1386.831909,1264.551636 
	C1393.937256,1259.306519 1400.684448,1253.570923 1407.515869,1247.961914 
	C1418.939331,1238.582764 1430.422485,1229.270508 1441.646729,1219.656982 
	C1448.055420,1214.168213 1453.976562,1208.112549 1460.162109,1202.360352 
	C1468.269409,1194.820801 1476.692261,1187.598267 1484.486328,1179.749756 
	C1494.746094,1169.417969 1504.491089,1158.576294 1514.530029,1148.022827 
	C1518.872437,1143.457886 1523.578857,1139.229980 1527.793823,1134.555054 
	C1533.806763,1127.885986 1539.663330,1121.063354 1545.328735,1114.096558 
	C1554.513550,1102.802246 1563.582031,1091.409912 1572.519165,1079.918701 
	C1578.246094,1072.555298 1583.705566,1064.980957 1589.184937,1057.428589 
	C1598.809937,1044.162231 1608.559814,1030.979126 1617.866089,1017.491150 
	C1623.856445,1008.808899 1629.144531,999.642273 1634.753784,990.696960 
	C1638.706421,984.393616 1642.888916,978.222412 1646.579346,971.769531 
	C1652.573975,961.288147 1658.175293,950.582520 1664.084717,940.051270 
	C1668.272583,932.588196 1672.894653,925.364624 1676.957031,917.836731 
	C1681.187134,909.998413 1685.020630,901.943909 1688.949097,893.945435 
	C1693.217285,885.254883 1697.509521,876.572815 1701.583618,867.790710 
	C1706.491943,857.210571 1711.230347,846.550598 1715.951416,835.884949 
	C1720.006592,826.723816 1723.935181,817.506714 1727.913330,808.311584 
	C1728.042114,808.013855 1728.150391,807.690308 1728.182617,807.370178 
	C1728.877686,800.476807 1733.232056,799.626709 1739.181763,799.880371 
	C1749.358032,800.314209 1759.571167,800.205139 1769.759888,799.955444 
	C1788.968994,799.484680 1807.968018,797.609070 1827.016479,794.431519 
	C1847.185913,791.067078 1866.442627,785.094360 1885.550903,778.506653 
	C1895.367676,775.122253 1904.536255,769.697021 1913.721802,764.688049 
	C1922.926147,759.668823 1932.106323,754.479797 1940.704712,748.511475 
	C1948.616943,743.019287 1955.856323,736.525085 1963.169678,730.214539 
	C1967.571777,726.416016 1971.762085,722.318237 1975.669067,718.011475 
	C1981.955322,711.082092 1988.141968,704.038391 1993.964111,696.719543 
	C1998.391113,691.154663 2002.446777,685.248840 2006.196167,679.202332 
	C2010.777832,671.814148 2014.899902,664.138916 2019.156372,656.551819 
	C2021.691650,652.032959 2024.365967,647.564941 2026.515869,642.862854 
	C2030.856323,633.370300 2034.669922,623.634033 2039.115356,614.193481 
	C2041.852295,608.381226 2045.355713,602.929749 2048.757324,597.658081 
	C2049.000000,891.940918 2049.000000,1185.881836 2049.000000,1480.000000 
	C1619.979126,1480.000000 1190.958252,1480.000000 761.468628,1480.000000 
z"/>
<path fill="#000000" opacity="1.000000" stroke="none" 
	d="
M1.000003,875.468628 
	C1.657339,875.512329 2.837328,875.972351 2.894717,876.544800 
	C4.008355,887.653625 4.746469,898.804932 6.075256,909.885925 
	C7.200156,919.266602 8.957409,928.572327 10.471075,937.905334 
	C12.295442,949.154175 14.017264,960.422546 16.065054,971.630981 
	C17.054239,977.045288 18.715761,982.335083 20.022852,987.693420 
	C22.364700,997.293701 24.449474,1006.963135 27.051350,1016.491760 
	C29.562040,1025.686401 32.573273,1034.744873 35.394920,1043.853882 
	C38.931278,1055.270264 42.377178,1066.716919 46.108948,1078.069336 
	C47.722031,1082.976562 49.883419,1087.710449 51.915878,1092.471680 
	C58.389462,1107.636841 64.649750,1122.901978 71.532425,1137.880371 
	C75.439789,1146.383545 80.393242,1154.406982 84.891617,1162.637695 
	C90.448906,1172.806030 95.694649,1183.163940 101.684753,1193.071167 
	C107.345383,1202.433594 113.811569,1211.307861 119.892944,1220.417358 
	C123.736832,1226.175049 127.262039,1232.166748 131.403091,1237.699585 
	C136.839417,1244.963013 142.539978,1252.052490 148.484695,1258.906616 
	C161.006012,1273.343018 173.520401,1287.800171 186.520020,1301.800903 
	C193.011871,1308.792725 200.574509,1314.788818 207.635025,1321.254517 
	C212.019714,1325.269897 216.238800,1329.477539 220.769165,1333.319458 
	C227.100494,1338.688965 233.519073,1343.974854 240.141418,1348.977417 
	C250.514511,1356.813477 260.928040,1364.616821 271.635651,1371.981689 
	C278.655853,1376.810303 286.191681,1380.897827 293.556213,1385.215576 
	C303.861694,1391.257324 314.095490,1397.439453 324.598450,1403.120728 
	C333.740448,1408.065918 343.139557,1412.557251 352.561401,1416.957153 
	C361.494080,1421.128906 370.473785,1425.259766 379.669312,1428.793213 
	C390.481323,1432.948242 401.536224,1436.475220 412.508148,1440.208740 
	C421.540100,1443.282104 430.523376,1446.537842 439.674286,1449.212891 
	C452.556366,1452.978760 465.469971,1456.746948 478.559357,1459.665283 
	C494.580475,1463.237305 510.723724,1466.417969 526.949585,1468.872803 
	C544.086243,1471.465576 561.375183,1473.068726 578.611389,1474.980713 
	C588.886536,1476.120728 599.190125,1477.003662 609.473267,1478.075317 
	C610.190674,1478.150146 610.844543,1478.834106 611.263977,1479.617432 
	C407.739868,1480.000000 204.479736,1480.000000 1.000000,1480.000000 
	C1.000000,1278.645874 1.000000,1077.291626 1.000003,875.468628 
z"/>
<path fill="#2396ED" opacity="1.000000" stroke="none" 
	d="
M1121.531372,1.000000 
	C1122.000000,67.786400 1122.000000,134.572800 1122.000000,201.679688 
	C1051.008179,201.679688 980.302063,201.679688 909.000305,201.679688 
	C909.000305,135.092468 909.000305,68.514893 909.000122,1.468657 
	C979.687561,1.000000 1050.375122,1.000000 1121.531372,1.000000 
z"/>
<path fill="#2396ED" opacity="1.000000" stroke="none" 
	d="
M1157.998779,530.000000 
	C1157.998779,513.530396 1157.998779,497.560822 1157.998779,481.296936 
	C1229.386230,481.296936 1300.440186,481.296936 1371.747559,481.296936 
	C1371.747559,548.357117 1371.747559,615.293396 1371.747559,682.615662 
	C1300.790894,682.615662 1229.736694,682.615662 1157.998779,682.615662 
	C1157.998779,632.005676 1157.998779,581.252869 1157.998779,530.000000 
z"/>
<path fill="#2396ED" opacity="1.000000" stroke="none" 
	d="
M622.000488,402.000000 
	C622.000488,415.803223 622.000488,429.106445 622.000488,442.704346 
	C550.947571,442.704346 480.227081,442.704346 409.253265,442.704346 
	C409.253265,375.645599 409.253265,308.709503 409.253265,241.386780 
	C479.875732,241.386780 550.596313,241.386780 622.000488,241.386780 
	C622.000488,294.661774 622.000488,348.080872 622.000488,402.000000 
z"/>
<path fill="#2396ED" opacity="1.000000" stroke="none" 
	d="
M871.999084,424.998932 
	C871.999084,431.136444 871.999084,436.774292 871.999084,442.704285 
	C800.946838,442.704285 730.226746,442.704285 659.253357,442.704285 
	C659.253357,375.645111 659.253357,308.709290 659.253357,241.386810 
	C729.875183,241.386810 800.595337,241.386810 871.999084,241.386810 
	C871.999084,302.329407 871.999084,363.414337 871.999084,424.998932 
z"/>
<path fill="#2396ED" opacity="1.000000" stroke="none" 
	d="
M1121.999756,435.915924 
	C1121.999756,438.386261 1121.999756,440.366943 1121.999756,442.671509 
	C1051.010986,442.671509 980.289490,442.671509 909.283691,442.671509 
	C909.283691,375.588287 909.283691,308.533325 909.283691,241.239258 
	C980.054321,241.239258 1050.657837,241.239258 1121.999756,241.239258 
	C1121.999756,305.934753 1121.999756,370.680511 1121.999756,435.915924 
z"/>
<path fill="#2396ED" opacity="1.000000" stroke="none" 
	d="
M622.000488,665.998169 
	C622.000488,671.802612 622.000488,677.107361 622.000488,682.703918 
	C550.947510,682.703918 480.227081,682.703918 409.253296,682.703918 
	C409.253296,615.645508 409.253296,548.709412 409.253296,481.386749 
	C479.875732,481.386749 550.596252,481.386749 622.000488,481.386749 
	C622.000488,542.661621 622.000488,604.080078 622.000488,665.998169 
z"/>
<path fill="#2396ED" opacity="1.000000" stroke="none" 
	d="
M667.063965,683.001404 
	C664.263184,683.001404 661.952454,683.001404 659.322266,683.001404 
	C659.322266,615.663269 659.322266,548.608826 659.322266,481.277130 
	C730.096863,481.277130 800.817688,481.277130 871.768921,481.277130 
	C871.768921,548.405701 871.768921,615.342346 871.768921,683.001404 
	C803.715271,683.001404 735.634644,683.001404 667.063965,683.001404 
z"/>
<path fill="#2396ED" opacity="1.000000" stroke="none" 
	d="
M1053.000000,683.001404 
	C1004.865723,683.001404 957.231445,683.001404 909.298950,683.001404 
	C909.298950,615.619507 909.298950,548.565796 909.298950,481.256042 
	C980.019287,481.256042 1050.621582,481.256042 1121.612061,481.256042 
	C1121.612061,548.206482 1121.612061,615.260559 1121.612061,683.001404 
	C1099.010010,683.001404 1076.255005,683.001404 1053.000000,683.001404 
z"/>
<path fill="#2396ED" opacity="1.000000" stroke="none" 
	d="
M254.000000,481.000427 
	C293.467834,481.000427 332.435638,481.000427 371.701111,481.000427 
	C371.701111,548.385986 371.701111,615.439636 371.701111,682.747559 
	C301.312164,682.747559 231.042770,682.747559 160.386551,682.747559 
	C160.386551,615.795776 160.386551,548.741638 160.386551,481.000427 
	C191.325104,481.000427 222.412552,481.000427 254.000000,481.000427 
z"/>
</svg>