<svg version="1.1" id="Layer_1" xmlns="http://www.w3.org/2000/svg" xmlns:xlink="http://www.w3.org/1999/xlink" x="0px" y="0px"
	 width="100%" viewBox="0 0 225 225" enable-background="new 0 0 225 225" xml:space="preserve">
<path fill="#FFFEFE" opacity="1.000000" stroke="none" 
	d="
M109.000000,226.000000 
	C73.035736,226.000000 37.071472,226.000000 1.053603,226.000000 
	C1.053603,151.110214 1.053603,76.220383 1.053603,1.000000 
	C36.686882,1.000000 72.374779,1.000000 108.380585,1.319254 
	C99.485771,4.992740 95.424011,10.482738 95.854553,19.961948 
	C95.986519,22.867167 94.855682,24.000095 92.649269,25.247465 
	C77.759865,33.665005 62.900291,42.137230 48.124676,50.752308 
	C45.531166,52.264484 43.812958,52.318840 41.161228,50.560402 
	C31.402821,44.089340 19.216171,48.222336 15.462513,58.941196 
	C11.924317,69.044785 16.018614,77.004997 27.890255,82.707619 
	C27.890255,89.388565 27.931524,96.202553 27.871542,103.015640 
	C27.844580,106.078247 28.164436,108.936539 32.034771,109.049576 
	C36.229481,109.172081 36.690285,106.063194 36.718639,102.872421 
	C36.761536,98.046036 36.949322,93.205856 36.661064,88.396385 
	C36.432568,84.584007 37.473221,82.180672 40.864906,79.884796 
	C47.240692,75.568954 51.176506,69.598709 49.155563,61.049137 
	C51.741886,59.550743 54.295376,58.037434 56.880123,56.579552 
	C70.885780,48.679928 84.899162,40.794010 99.021599,33.023315 
	C99.133316,33.143261 99.355957,33.383884 99.258942,33.716866 
	C89.517319,50.744213 79.870461,67.437279 70.232468,84.135468 
	C69.485146,85.430229 68.186279,86.781563 68.229774,88.069939 
	C68.294907,89.999290 68.865166,93.054817 70.053810,93.525017 
	C71.683723,94.169769 74.275101,93.189529 76.102516,92.233200 
	C77.233597,91.641273 77.732376,89.813347 78.479515,88.519768 
	C87.957939,72.108917 97.465279,55.714546 106.862297,39.257183 
	C108.150917,37.000370 109.384750,36.257481 112.232094,36.231525 
	C115.875809,36.198315 119.857605,35.161743 123.030190,33.377628 
	C125.651138,31.903736 127.254654,31.885571 129.660568,33.306118 
	C144.259781,41.926109 158.900833,50.477043 173.614304,58.900135 
	C176.416428,60.504280 177.824539,61.898769 177.764114,65.671913 
	C177.603592,75.695930 185.944565,83.304436 195.764130,83.007050 
	C205.370331,82.716133 213.044174,74.784874 213.007034,65.185760 
	C212.969666,55.534264 205.306396,47.298241 195.640289,47.732269 
	C190.953995,47.942696 186.363953,50.297112 180.486298,52.052380 
	C165.728455,43.452644 149.493988,34.030159 133.330597,24.487259 
	C132.273148,23.862934 131.046326,22.277441 131.104675,21.204653 
	C131.675629,10.707230 126.365768,4.475865 117.000000,1.000000 
	C153.297501,1.000000 189.594986,1.000000 225.946243,1.000000 
	C225.946243,75.890152 225.946243,150.780365 225.946243,226.000000 
	C189.646439,226.000000 153.291870,226.000000 116.691460,225.714020 
	C125.719925,223.480652 131.308914,216.813431 130.968628,207.438568 
	C130.856613,204.352737 131.632004,202.645996 134.380814,201.219147 
	C139.538742,198.541763 144.493042,195.472290 149.534134,192.569550 
	C160.576721,186.211075 171.620575,179.854874 182.560333,173.557404 
	C183.496857,174.251801 184.012253,174.665848 184.558456,175.034195 
	C193.658295,181.170944 205.555405,178.932999 210.707596,170.120560 
	C215.686829,161.603928 212.546158,150.681961 203.806656,146.121933 
	C194.259964,141.140732 183.487015,144.962585 179.124680,155.319519 
	C177.867767,158.303574 176.066986,158.219345 173.704239,158.218323 
	C133.388168,158.201096 93.072105,158.207977 52.756046,158.196976 
	C51.447689,158.196625 50.139362,158.063461 48.532013,157.975922 
	C47.324448,151.135071 43.643097,146.415268 36.781006,144.679031 
	C36.781006,138.580948 37.137550,132.733932 36.568974,126.978287 
	C36.392883,125.195801 33.702221,123.661728 32.162830,122.013916 
	C30.744024,123.719437 28.371326,125.286575 28.099741,127.158531 
	C27.484259,131.400894 28.146086,135.814331 27.774799,140.113846 
	C27.640043,141.674316 26.398481,143.765686 25.054821,144.492584 
	C16.953146,148.875473 13.264574,154.708298 13.986170,162.815613 
	C14.629480,170.043381 19.805506,176.441727 26.718544,178.554749 
	C33.584858,180.653503 40.755234,177.945618 46.058792,170.510330 
	C48.098602,167.650635 50.239006,167.010803 53.459286,167.018585 
	C92.442352,167.112823 131.425735,167.079666 170.409042,167.079666 
	C171.967819,167.079666 173.526611,167.079681 175.085388,167.079681 
	C175.133347,167.375397 175.181290,167.671127 175.229248,167.966843 
	C158.824005,177.278870 142.418762,186.590912 125.958900,195.933945 
	C125.002083,195.195084 124.256157,194.550537 123.444748,194.003021 
	C114.603134,188.037094 103.000122,190.547348 97.913597,199.512894 
	C92.749489,208.615204 96.403770,219.644684 106.106491,224.310471 
	C107.109802,224.792923 108.037315,225.433044 109.000000,226.000000 
M177.233017,120.227112 
	C166.521149,101.645798 155.771164,83.086250 145.133926,64.462303 
	C143.306198,61.262257 140.999832,59.245964 137.556458,61.358723 
	C134.249924,63.387527 135.289154,66.424614 136.959900,69.237045 
	C139.168320,72.954590 141.309052,76.712425 143.468567,80.458885 
	C153.763397,98.318932 164.055054,116.180801 174.346954,134.042542 
	C176.023285,136.951889 178.281281,138.923126 181.633438,136.865036 
	C184.662735,135.005173 184.327057,132.258423 182.637924,129.471436 
	C180.914841,126.628387 179.306213,123.715958 177.233017,120.227112 
M91.806221,191.961884 
	C90.258705,190.521301 88.903580,188.760529 87.130600,187.695160 
	C79.154114,182.902176 71.029198,178.356903 63.022465,173.613205 
	C60.114212,171.890167 57.385048,171.037338 55.293320,174.476913 
	C53.047466,178.169907 55.334541,180.348083 58.321449,182.082611 
	C66.657852,186.923676 75.002617,191.750381 83.351212,196.570435 
	C87.975693,199.240372 90.374245,198.152069 91.806221,191.961884 
M198.611450,129.641144 
	C198.722931,118.875565 199.066406,108.102493 198.718674,97.351761 
	C198.660370,95.549400 195.607452,93.843887 193.938248,92.093628 
	C192.613037,93.863792 190.208817,95.594055 190.141632,97.410736 
	C189.768051,107.512451 189.820145,117.639023 190.096985,127.746941 
	C190.144455,129.480408 191.644791,132.073959 193.084900,132.601044 
	C194.370407,133.071533 196.500534,131.234299 198.611450,129.641144 
M51.165375,117.679260 
	C50.089718,119.544342 48.356171,121.329987 48.118748,123.296288 
	C47.868683,125.367340 48.493992,128.109344 49.820107,129.584122 
	C50.563248,130.410568 54.531116,129.969833 55.275154,128.885223 
	C58.816433,123.723015 62.057640,118.285492 64.671585,112.607979 
	C65.285065,111.275490 63.537231,107.803749 61.956264,106.865463 
	C60.812279,106.186501 57.546482,107.531067 56.298801,108.929543 
	C54.251289,111.224495 53.073780,114.295654 51.165375,117.679260 
M135.528336,48.135021 
	C134.739029,46.694946 134.133179,45.108219 133.123108,43.844608 
	C130.858383,41.011421 125.909897,41.266384 125.074837,44.578239 
	C124.511314,46.813187 125.628876,49.927589 126.967339,52.028900 
	C127.883987,53.468002 131.159912,55.015232 132.163757,54.429115 
	C133.882950,53.425308 134.648819,50.788746 135.528336,48.135021 
z"/>
<path fill="#E00484" opacity="1.000000" stroke="none" 
	d="
M116.555832,1.000000 
	C126.365768,4.475865 131.675629,10.707230 131.104675,21.204653 
	C131.046326,22.277441 132.273148,23.862934 133.330597,24.487259 
	C149.493988,34.030159 165.728455,43.452644 180.486298,52.052380 
	C186.363953,50.297112 190.953995,47.942696 195.640289,47.732269 
	C205.306396,47.298241 212.969666,55.534264 213.007034,65.185760 
	C213.044174,74.784874 205.370331,82.716133 195.764130,83.007050 
	C185.944565,83.304436 177.603592,75.695930 177.764114,65.671913 
	C177.824539,61.898769 176.416428,60.504280 173.614304,58.900135 
	C158.900833,50.477043 144.259781,41.926109 129.660568,33.306118 
	C127.254654,31.885571 125.651138,31.903736 123.030190,33.377628 
	C119.857605,35.161743 115.875809,36.198315 112.232094,36.231525 
	C109.384750,36.257481 108.150917,37.000370 106.862297,39.257183 
	C97.465279,55.714546 87.957939,72.108917 78.479515,88.519768 
	C77.732376,89.813347 77.233597,91.641273 76.102516,92.233200 
	C74.275101,93.189529 71.683723,94.169769 70.053810,93.525017 
	C68.865166,93.054817 68.294907,89.999290 68.229774,88.069939 
	C68.186279,86.781563 69.485146,85.430229 70.232468,84.135468 
	C79.870461,67.437279 89.517319,50.744213 99.460800,33.554905 
	C99.733955,32.820229 99.708244,32.580498 99.682526,32.340763 
	C99.424973,32.528297 99.167427,32.715832 98.909882,32.903370 
	C84.899162,40.794010 70.885780,48.679928 56.880123,56.579552 
	C54.295376,58.037434 51.741886,59.550743 49.155563,61.049137 
	C51.176506,69.598709 47.240692,75.568954 40.864906,79.884796 
	C37.473221,82.180672 36.432568,84.584007 36.661064,88.396385 
	C36.949322,93.205856 36.761536,98.046036 36.718639,102.872421 
	C36.690285,106.063194 36.229481,109.172081 32.034771,109.049576 
	C28.164436,108.936539 27.844580,106.078247 27.871542,103.015640 
	C27.931524,96.202553 27.890255,89.388565 27.890255,82.707619 
	C16.018614,77.004997 11.924317,69.044785 15.462513,58.941196 
	C19.216171,48.222336 31.402821,44.089340 41.161228,50.560402 
	C43.812958,52.318840 45.531166,52.264484 48.124676,50.752308 
	C62.900291,42.137230 77.759865,33.665005 92.649269,25.247465 
	C94.855682,24.000095 95.986519,22.867167 95.854553,19.961948 
	C95.424011,10.482738 99.485771,4.992740 108.849243,1.319254 
	C111.370560,1.000000 113.741112,1.000000 116.555832,1.000000 
z"/>
<path fill="#E00584" opacity="1.000000" stroke="none" 
	d="
M109.437500,226.000000 
	C108.037315,225.433044 107.109802,224.792923 106.106491,224.310471 
	C96.403770,219.644684 92.749489,208.615204 97.913597,199.512894 
	C103.000122,190.547348 114.603134,188.037094 123.444748,194.003021 
	C124.256157,194.550537 125.002083,195.195084 125.958900,195.933945 
	C142.418762,186.590912 158.824005,177.278870 175.229248,167.966843 
	C175.181290,167.671127 175.133347,167.375397 175.085388,167.079681 
	C173.526611,167.079681 171.967819,167.079666 170.409042,167.079666 
	C131.425735,167.079666 92.442352,167.112823 53.459286,167.018585 
	C50.239006,167.010803 48.098602,167.650635 46.058792,170.510330 
	C40.755234,177.945618 33.584858,180.653503 26.718544,178.554749 
	C19.805506,176.441727 14.629480,170.043381 13.986170,162.815613 
	C13.264574,154.708298 16.953146,148.875473 25.054821,144.492584 
	C26.398481,143.765686 27.640043,141.674316 27.774799,140.113846 
	C28.146086,135.814331 27.484259,131.400894 28.099741,127.158531 
	C28.371326,125.286575 30.744024,123.719437 32.162830,122.013916 
	C33.702221,123.661728 36.392883,125.195801 36.568974,126.978287 
	C37.137550,132.733932 36.781006,138.580948 36.781006,144.679031 
	C43.643097,146.415268 47.324448,151.135071 48.532013,157.975922 
	C50.139362,158.063461 51.447689,158.196625 52.756046,158.196976 
	C93.072105,158.207977 133.388168,158.201096 173.704239,158.218323 
	C176.066986,158.219345 177.867767,158.303574 179.124680,155.319519 
	C183.487015,144.962585 194.259964,141.140732 203.806656,146.121933 
	C212.546158,150.681961 215.686829,161.603928 210.707596,170.120560 
	C205.555405,178.932999 193.658295,181.170944 184.558456,175.034195 
	C184.012253,174.665848 183.496857,174.251801 182.560333,173.557404 
	C171.620575,179.854874 160.576721,186.211075 149.534134,192.569550 
	C144.493042,195.472290 139.538742,198.541763 134.380814,201.219147 
	C131.632004,202.645996 130.856613,204.352737 130.968628,207.438568 
	C131.308914,216.813431 125.719925,223.480652 116.222801,225.714020 
	C113.958336,226.000000 111.916664,226.000000 109.437500,226.000000 
z"/>
<path fill="#E00684" opacity="1.000000" stroke="none" 
	d="
M177.440247,120.530518 
	C179.306213,123.715958 180.914841,126.628387 182.637924,129.471436 
	C184.327057,132.258423 184.662735,135.005173 181.633438,136.865036 
	C178.281281,138.923126 176.023285,136.951889 174.346954,134.042542 
	C164.055054,116.180801 153.763397,98.318932 143.468567,80.458885 
	C141.309052,76.712425 139.168320,72.954590 136.959900,69.237045 
	C135.289154,66.424614 134.249924,63.387527 137.556458,61.358723 
	C140.999832,59.245964 143.306198,61.262257 145.133926,64.462303 
	C155.771164,83.086250 166.521149,101.645798 177.440247,120.530518 
z"/>
<path fill="#CECECE" opacity="1.000000" stroke="none" 
	d="
M91.870499,192.334503 
	C90.374245,198.152069 87.975693,199.240372 83.351212,196.570435 
	C75.002617,191.750381 66.657852,186.923676 58.321449,182.082611 
	C55.334541,180.348083 53.047466,178.169907 55.293320,174.476913 
	C57.385048,171.037338 60.114212,171.890167 63.022465,173.613205 
	C71.029198,178.356903 79.154114,182.902176 87.130600,187.695160 
	C88.903580,188.760529 90.258705,190.521301 91.870499,192.334503 
z"/>
<path fill="#CDCDCD" opacity="1.000000" stroke="none" 
	d="
M198.434692,130.028290 
	C196.500534,131.234299 194.370407,133.071533 193.084900,132.601044 
	C191.644791,132.073959 190.144455,129.480408 190.096985,127.746941 
	C189.820145,117.639023 189.768051,107.512451 190.141632,97.410736 
	C190.208817,95.594055 192.613037,93.863792 193.938248,92.093628 
	C195.607452,93.843887 198.660370,95.549400 198.718674,97.351761 
	C199.066406,108.102493 198.722931,118.875565 198.434692,130.028290 
z"/>
<path fill="#CECECE" opacity="1.000000" stroke="none" 
	d="
M51.347385,117.359375 
	C53.073780,114.295654 54.251289,111.224495 56.298801,108.929543 
	C57.546482,107.531067 60.812279,106.186501 61.956264,106.865463 
	C63.537231,107.803749 65.285065,111.275490 64.671585,112.607979 
	C62.057640,118.285492 58.816433,123.723015 55.275154,128.885223 
	C54.531116,129.969833 50.563248,130.410568 49.820107,129.584122 
	C48.493992,128.109344 47.868683,125.367340 48.118748,123.296288 
	C48.356171,121.329987 50.089718,119.544342 51.347385,117.359375 
z"/>
<path fill="#CFCFCF" opacity="1.000000" stroke="none" 
	d="
M135.671677,48.486412 
	C134.648819,50.788746 133.882950,53.425308 132.163757,54.429115 
	C131.159912,55.015232 127.883987,53.468002 126.967339,52.028900 
	C125.628876,49.927589 124.511314,46.813187 125.074837,44.578239 
	C125.909897,41.266384 130.858383,41.011421 133.123108,43.844608 
	C134.133179,45.108219 134.739029,46.694946 135.671677,48.486412 
z"/>
<path fill="#FFFEFE" opacity="1.000000" stroke="none" 
	d="
M99.021599,33.023315 
	C99.167427,32.715832 99.424973,32.528297 99.682526,32.340763 
	C99.708244,32.580498 99.733955,32.820229 99.557816,33.221924 
	C99.355957,33.383884 99.133316,33.143261 99.021599,33.023315 
z"/>
</svg>