<svg version="1.1" id="Layer_1" xmlns="http://www.w3.org/2000/svg" xmlns:xlink="http://www.w3.org/1999/xlink" x="0px" y="0px"
	 width="100%" viewBox="0 0 512 512" enable-background="new 0 0 512 512" xml:space="preserve">
<path fill="#000000" opacity="1.000000" stroke="none" 
	d="
M337.000000,513.000000 
	C224.693954,513.000000 112.887901,513.000000 1.040925,513.000000 
	C1.040925,342.402252 1.040925,171.804504 1.040925,1.103379 
	C171.556061,1.103379 342.112183,1.103379 512.834167,1.103379 
	C512.834167,171.666534 512.834167,342.333252 512.834167,513.000000 
	C454.471161,513.000000 395.985565,513.000000 337.000000,513.000000 
M301.458313,80.054848 
	C291.931427,74.551651 282.404510,69.048454 272.252716,63.184280 
	C272.252716,86.148949 272.182220,107.962585 272.398224,129.773376 
	C272.414001,131.369125 274.153625,133.537430 275.682007,134.438873 
	C294.293793,145.416183 313.028839,156.184158 331.701782,167.058212 
	C336.911224,170.091888 336.916931,172.045303 331.851715,174.977707 
	C309.123474,188.135818 286.326782,201.177444 263.700073,214.507599 
	C259.373596,217.056458 255.999451,216.869217 251.774460,214.384384 
	C229.282135,201.155914 206.646835,188.170547 184.058533,175.105331 
	C178.400467,171.832672 178.356735,170.263535 183.871185,167.070557 
	C202.425842,156.326981 220.955490,145.539627 239.569626,134.900116 
	C242.161270,133.418762 243.271561,131.858505 243.246506,128.725800 
	C243.082611,108.231209 243.164688,87.734673 243.154617,67.238777 
	C243.154083,66.174889 243.045563,65.111046 242.957275,63.498398 
	C241.374161,64.348915 240.373795,64.854515 239.403412,65.412262 
	C189.256912,94.235268 139.133942,123.099449 88.915138,151.795914 
	C85.988327,153.468384 85.714745,155.409302 85.717064,158.202469 
	C85.764565,215.357635 85.751007,272.512878 85.763016,329.668091 
	C85.763313,331.067596 85.916252,332.467102 85.999657,333.895020 
	C86.723251,333.815948 87.093323,333.878418 87.343048,333.733521 
	C105.743317,323.056488 124.176064,312.433563 142.449142,301.542725 
	C143.977097,300.632019 145.233109,297.915955 145.250427,296.026154 
	C145.445969,274.698883 145.357742,253.369141 145.384476,232.040100 
	C145.392883,225.339264 147.540787,224.015320 153.123322,227.236343 
	C175.581284,240.194183 197.989746,253.238464 220.505356,266.095184 
	C224.560608,268.410767 226.327866,271.201294 226.288391,276.035645 
	C226.074844,302.195343 226.221573,328.357788 226.128769,354.518890 
	C226.120499,356.846008 225.285110,359.170135 224.833847,361.495667 
	C222.600113,360.653107 220.203918,360.094391 218.158096,358.923523 
	C200.126221,348.603302 182.124847,338.228424 164.205566,327.714447 
	C161.739792,326.267700 160.023575,326.244019 157.535172,327.709290 
	C140.062393,337.997711 122.475174,348.091705 104.936348,358.268188 
	C103.873741,358.884735 102.912071,359.675232 101.776741,360.473907 
	C102.474747,360.964905 102.861916,361.283722 103.290070,361.531799 
	C153.623550,390.697815 203.980225,419.824005 254.244751,449.108368 
	C257.159454,450.806519 258.985901,449.950897 261.355103,448.580322 
	C295.883362,428.606232 330.444214,408.688446 364.988647,388.742340 
	C381.098877,379.440247 397.190643,370.106262 413.801666,360.490997 
	C394.047943,349.072144 374.809906,337.889954 355.450531,326.921936 
	C354.355988,326.301819 352.036041,327.040680 350.672241,327.821167 
	C332.062317,338.471405 313.525330,349.248993 294.959137,359.975800 
	C289.121643,363.348480 287.827179,362.587463 287.821503,355.707397 
	C287.799683,329.212708 287.878143,302.717682 287.747894,276.223633 
	C287.726379,271.845306 289.387421,269.161285 293.136780,267.021942 
	C315.801117,254.089996 338.375580,241.000580 360.987213,227.976120 
	C367.080811,224.466171 368.394440,225.222458 368.403381,232.348343 
	C368.430450,253.844009 368.474823,275.340088 368.341187,296.834961 
	C368.323212,299.728210 369.255829,301.298065 371.735931,302.666138 
	C385.559418,310.291565 399.293762,318.078400 413.069885,325.789948 
	C417.949493,328.521454 422.860870,331.196167 428.251648,334.169189 
	C428.251648,331.689575 428.251678,329.879028 428.251678,328.068451 
	C428.251678,271.746399 428.211517,215.424240 428.338196,159.102478 
	C428.347015,155.173569 427.265228,152.952423 423.749969,150.927750 
	C383.134338,127.534424 342.628204,103.950958 301.458313,80.054848 
z"/>
<path fill="#FEFEFE" opacity="1.000000" stroke="none" 
	d="
M301.775635,80.236420 
	C342.628204,103.950958 383.134338,127.534424 423.749969,150.927750 
	C427.265228,152.952423 428.347015,155.173569 428.338196,159.102478 
	C428.211517,215.424240 428.251678,271.746399 428.251678,328.068451 
	C428.251678,329.879028 428.251648,331.689575 428.251648,334.169189 
	C422.860870,331.196167 417.949493,328.521454 413.069885,325.789948 
	C399.293762,318.078400 385.559418,310.291565 371.735931,302.666138 
	C369.255829,301.298065 368.323212,299.728210 368.341187,296.834961 
	C368.474823,275.340088 368.430450,253.844009 368.403381,232.348343 
	C368.394440,225.222458 367.080811,224.466171 360.987213,227.976120 
	C338.375580,241.000580 315.801117,254.089996 293.136780,267.021942 
	C289.387421,269.161285 287.726379,271.845306 287.747894,276.223633 
	C287.878143,302.717682 287.799683,329.212708 287.821503,355.707397 
	C287.827179,362.587463 289.121643,363.348480 294.959137,359.975800 
	C313.525330,349.248993 332.062317,338.471405 350.672241,327.821167 
	C352.036041,327.040680 354.355988,326.301819 355.450531,326.921936 
	C374.809906,337.889954 394.047943,349.072144 413.801666,360.490997 
	C397.190643,370.106262 381.098877,379.440247 364.988647,388.742340 
	C330.444214,408.688446 295.883362,428.606232 261.355103,448.580322 
	C258.985901,449.950897 257.159454,450.806519 254.244751,449.108368 
	C203.980225,419.824005 153.623550,390.697815 103.290070,361.531799 
	C102.861916,361.283722 102.474747,360.964905 101.776741,360.473907 
	C102.912071,359.675232 103.873741,358.884735 104.936348,358.268188 
	C122.475174,348.091705 140.062393,337.997711 157.535172,327.709290 
	C160.023575,326.244019 161.739792,326.267700 164.205566,327.714447 
	C182.124847,338.228424 200.126221,348.603302 218.158096,358.923523 
	C220.203918,360.094391 222.600113,360.653107 224.833862,361.495667 
	C225.285110,359.170135 226.120499,356.846008 226.128769,354.518890 
	C226.221573,328.357788 226.074844,302.195343 226.288391,276.035645 
	C226.327866,271.201294 224.560608,268.410767 220.505356,266.095184 
	C197.989746,253.238464 175.581284,240.194183 153.123322,227.236343 
	C147.540787,224.015320 145.392883,225.339264 145.384476,232.040100 
	C145.357742,253.369141 145.445969,274.698883 145.250427,296.026154 
	C145.233109,297.915955 143.977097,300.632019 142.449142,301.542725 
	C124.176064,312.433563 105.743317,323.056488 87.343048,333.733521 
	C87.093323,333.878418 86.723251,333.815948 85.999657,333.895020 
	C85.916252,332.467102 85.763313,331.067596 85.763016,329.668091 
	C85.751007,272.512878 85.764565,215.357635 85.717064,158.202469 
	C85.714745,155.409302 85.988327,153.468384 88.915138,151.795914 
	C139.133942,123.099449 189.256912,94.235268 239.403412,65.412262 
	C240.373795,64.854515 241.374161,64.348915 242.957275,63.498398 
	C243.045563,65.111046 243.154083,66.174889 243.154617,67.238777 
	C243.164688,87.734673 243.082611,108.231209 243.246506,128.725800 
	C243.271561,131.858505 242.161270,133.418762 239.569626,134.900116 
	C220.955490,145.539627 202.425842,156.326981 183.871185,167.070557 
	C178.356735,170.263535 178.400467,171.832672 184.058533,175.105331 
	C206.646835,188.170547 229.282135,201.155914 251.774460,214.384384 
	C255.999451,216.869217 259.373596,217.056458 263.700073,214.507599 
	C286.326782,201.177444 309.123474,188.135818 331.851715,174.977707 
	C336.916931,172.045303 336.911224,170.091888 331.701782,167.058212 
	C313.028839,156.184158 294.293793,145.416183 275.682007,134.438873 
	C274.153625,133.537430 272.414001,131.369125 272.398224,129.773376 
	C272.182220,107.962585 272.252716,86.148949 272.252716,63.184280 
	C282.404510,69.048454 291.931427,74.551651 301.775635,80.236420 
z"/>
</svg>