<svg version="1.1" id="Layer_1" xmlns="http://www.w3.org/2000/svg" xmlns:xlink="http://www.w3.org/1999/xlink" x="0px" y="0px"
	 width="100%" viewBox="0 0 200 200" enable-background="new 0 0 200 200" xml:space="preserve">
<path fill="#149DFD" opacity="1.000000" stroke="none" 
	d="
M1.000000,172.000000 
	C1.000000,156.979111 1.000000,141.958206 1.468657,126.468658 
	C22.597977,126.000000 43.258652,125.986061 63.919289,126.009369 
	C69.380104,126.015533 75.158722,124.909454 79.572144,130.197632 
	C80.715462,131.777466 81.778923,133.069824 82.465782,134.538345 
	C84.253822,138.361221 86.469437,138.472794 89.684486,136.040131 
	C93.069122,133.479126 96.768318,131.333832 100.689148,128.985352 
	C105.352463,125.473427 110.311699,125.569519 115.407097,126.299858 
	C117.499512,126.599762 119.609802,126.774933 121.937836,127.285004 
	C123.174141,129.285294 124.201485,130.997757 125.192314,132.731064 
	C132.855057,146.135956 140.510742,159.544861 147.730316,172.963654 
	C143.354095,172.649872 139.395157,172.482452 135.483505,171.960678 
	C130.444626,171.288544 128.380905,173.408463 128.561752,178.118256 
	C126.408241,173.395752 123.663094,173.362320 120.287979,176.306503 
	C119.947372,176.603607 119.431633,176.699951 118.997627,176.466705 
	C119.589417,171.483231 116.445908,171.989548 113.579315,171.990631 
	C76.052879,172.004791 38.526440,172.000031 1.000000,172.000000 
M98.023331,153.620377 
	C94.147812,156.561234 95.267616,160.516815 101.609047,165.855957 
	C104.475220,164.020737 107.363670,162.101425 110.319786,160.292694 
	C116.858124,156.292160 116.660484,156.443710 112.764374,150.047760 
	C110.644218,146.567230 108.788841,146.312698 105.750710,148.701294 
	C103.554108,150.428284 101.014740,151.719315 98.023331,153.620377 
z"/>
<path fill="#12A3FD" opacity="1.000000" stroke="none" 
	d="
M79.320694,129.990433 
	C75.158722,124.909454 69.380104,126.015533 63.919289,126.009369 
	C43.258652,125.986061 22.597977,126.000000 1.468657,126.000000 
	C1.000000,111.312439 1.000000,96.624878 1.468657,81.468658 
	C3.757308,81.000000 5.577840,80.970894 7.397209,81.004601 
	C22.088800,81.276772 36.780170,81.560745 51.702599,82.075584 
	C55.402634,86.627686 57.225792,80.922974 60.273556,81.258904 
	C61.680210,81.629883 62.818272,81.872200 63.937313,81.803703 
	C74.814102,81.137993 85.792915,78.788712 96.525742,84.098969 
	C97.463684,85.228561 98.167595,86.171501 98.959930,87.452629 
	C106.602882,100.862823 114.157425,113.934830 121.711960,127.006836 
	C119.609802,126.774933 117.499512,126.599762 115.407097,126.299858 
	C110.311699,125.569519 105.352463,125.473427 100.657059,128.612091 
	C98.462845,125.159737 96.659790,122.059105 94.608093,118.530884 
	C89.812500,121.501511 85.442841,124.093948 81.223938,126.912086 
	C80.311302,127.521690 79.940865,128.943008 79.320694,129.990433 
M77.582443,107.040321 
	C78.560928,106.423042 79.487259,105.694008 80.527321,105.208710 
	C84.173386,103.507385 85.116478,101.292366 82.234718,98.014351 
	C81.262772,96.908745 80.780876,95.325745 79.710388,94.368843 
	C78.927330,93.668892 77.186295,93.007751 76.493080,93.407059 
	C71.834381,96.090576 67.341805,99.062500 62.559101,102.090561 
	C65.046318,105.845078 67.099823,108.944893 69.250740,112.191750 
	C72.195801,110.359116 74.572029,108.880455 77.582443,107.040321 
z"/>
<path fill="#1598FE" opacity="1.000000" stroke="none" 
	d="
M1.000000,172.468658 
	C38.526440,172.000031 76.052879,172.004791 113.579315,171.990631 
	C116.445908,171.989548 119.589417,171.483231 118.760056,176.719101 
	C109.096985,183.470551 109.094299,183.472488 115.483452,192.297073 
	C115.655571,192.534821 116.040161,192.618713 116.756256,193.009094 
	C119.738220,191.112686 122.753830,188.735306 126.141129,187.154190 
	C130.625412,185.061050 132.175583,182.574615 128.854767,178.325043 
	C128.380905,173.408463 130.444626,171.288544 135.483505,171.960678 
	C139.395157,172.482452 143.354095,172.649872 148.008850,173.154419 
	C154.150452,182.556015 159.575226,191.778015 165.000000,201.000000 
	C110.333305,201.000000 55.666603,201.000000 1.000000,201.000000 
	C1.000000,191.561569 1.000000,182.249451 1.000000,172.468658 
z"/>
<path fill="#EAEAEA" opacity="1.000000" stroke="none" 
	d="
M201.000000,49.000000 
	C201.000000,58.687561 201.000000,68.375122 200.641800,78.607986 
	C198.646515,82.683075 195.729599,83.154297 192.172409,83.067970 
	C183.543930,82.858582 174.906937,82.999962 166.273376,83.000000 
	C162.691910,83.000008 159.110428,83.000000 155.528961,83.000000 
	C155.859909,82.540009 156.190857,82.080025 156.521805,81.620033 
	C155.391785,79.746094 154.261765,77.872154 153.072861,75.620575 
	C149.862732,68.691818 142.737976,67.866020 136.798126,62.745232 
	C135.327255,67.942818 134.250000,71.749512 133.107605,75.930214 
	C133.042465,78.300064 133.042465,80.295914 133.042465,82.583221 
	C125.371506,82.583221 117.437111,82.583221 109.502716,82.583221 
	C109.871803,82.120163 110.240891,81.657112 110.609985,81.194054 
	C109.160759,79.463226 107.711540,77.732407 106.353180,75.683830 
	C110.281990,69.614563 114.119949,63.863049 117.973450,57.849129 
	C117.992523,57.411514 117.996071,57.236305 118.212906,56.774261 
	C121.889801,51.200188 125.353424,45.912956 128.960968,40.962509 
	C129.280136,41.925781 129.734436,42.628033 129.588058,43.167194 
	C127.860558,49.529629 128.159012,49.949635 134.832382,49.997280 
	C136.654510,50.010292 138.705093,50.521240 140.243866,49.858608 
	C142.377655,48.939751 144.107422,47.100872 146.047791,45.708355 
	C147.358780,44.767513 148.734619,43.917038 150.030685,43.370186 
	C149.316254,44.986927 148.652588,46.259624 147.846924,47.804619 
	C149.874557,49.153854 151.617310,50.367077 153.411621,51.498535 
	C162.737717,57.379375 162.742294,57.372120 169.549133,48.999954 
	C180.320938,48.999622 190.660477,48.999813 201.000000,49.000000 
z"/>
<path fill="#313131" opacity="1.000000" stroke="none" 
	d="
M52.000000,1.000000 
	C85.354225,1.000000 118.708458,1.000000 152.547363,1.358352 
	C149.341644,7.806704 145.651245,13.896704 141.679535,20.173698 
	C138.587708,24.570284 135.777222,28.779873 132.534912,32.992558 
	C128.815918,32.663826 125.530701,32.069801 122.241272,32.045513 
	C107.933853,31.939882 93.624969,31.959661 79.317276,32.044544 
	C77.211243,32.057037 75.108742,32.664181 72.740570,32.789650 
	C70.736595,29.966171 68.966782,27.368523 67.262329,24.728670 
	C62.161163,16.827972 57.085575,8.910764 52.000000,1.000000 
z"/>
<path fill="#E6E6E6" opacity="1.000000" stroke="none" 
	d="
M106.262321,76.001579 
	C107.711540,77.732407 109.160759,79.463226 110.609985,81.194054 
	C110.240891,81.657112 109.871803,82.120163 109.502716,82.583221 
	C117.437111,82.583221 125.371506,82.583221 133.042465,82.583221 
	C133.042465,80.295914 133.042465,78.300064 133.445755,76.043694 
	C135.102936,76.564392 136.350571,77.355904 137.611984,78.124786 
	C140.553040,79.917496 143.663651,83.292122 146.397339,83.012497 
	C148.855576,82.761047 150.903076,78.494003 153.131744,75.998215 
	C154.261765,77.872154 155.391785,79.746094 156.521805,81.620033 
	C156.190857,82.080025 155.859909,82.540009 155.528961,83.000000 
	C159.110428,83.000000 162.691910,83.000008 166.273376,83.000000 
	C174.906937,82.999962 183.543930,82.858582 192.172409,83.067970 
	C195.729599,83.154297 198.646515,82.683075 200.641800,79.076645 
	C201.000000,89.020897 201.000000,99.041786 200.577667,109.544983 
	C197.705200,110.351494 195.256454,110.943665 192.804688,110.956474 
	C176.692078,111.040657 160.578781,111.011963 144.465775,110.982231 
	C142.746140,110.979065 141.026962,110.731705 139.307556,110.597626 
	C139.604797,110.206985 139.902039,109.816353 140.199280,109.425713 
	C139.123291,107.614464 138.047318,105.803223 137.033813,103.680969 
	C136.760605,102.276825 136.770218,100.676323 136.032349,100.174118 
	C131.728439,97.244858 127.249237,94.573143 122.548470,91.639198 
	C121.029671,93.888718 119.903847,95.899910 118.448990,97.635277 
	C115.885384,100.693184 116.486656,102.872002 119.545654,104.775658 
	C118.721497,106.109436 118.285141,107.205818 117.581833,108.081131 
	C115.665703,105.580063 114.013268,103.302406 112.367989,101.019592 
	C108.514259,95.672569 104.663963,90.323074 100.890167,84.639191 
	C101.950615,82.528908 102.933174,80.754005 104.173019,78.791389 
	C105.040977,77.736305 105.651649,76.868942 106.262321,76.001579 
z"/>
<path fill="#11A8FC" opacity="1.000000" stroke="none" 
	d="
M96.291710,83.912315 
	C85.792915,78.788712 74.814102,81.137993 63.937313,81.803703 
	C62.818272,81.872200 61.680210,81.629883 60.469719,80.982056 
	C63.262550,78.577583 66.136635,76.722832 69.307846,74.676331 
	C66.995949,71.104645 64.973633,67.980339 62.683125,64.441704 
	C56.938148,67.946854 51.707951,71.137932 46.724110,74.178696 
	C48.714069,77.390465 50.092838,79.615791 51.471611,81.841110 
	C36.780170,81.560745 22.088800,81.276772 7.397209,81.004601 
	C5.577840,80.970894 3.757308,81.000000 1.468657,81.000000 
	C1.000000,70.979103 1.000000,60.958210 1.468657,50.468658 
	C12.249433,49.896271 22.561550,49.792542 32.987629,49.990501 
	C33.759598,51.207985 34.651440,52.035648 35.035522,53.054688 
	C36.785816,57.698547 39.296333,57.462547 42.794643,54.773159 
	C45.245613,52.888931 48.127823,51.565666 51.297543,49.994385 
	C60.043446,49.929588 68.309250,49.862282 76.786362,50.042896 
	C83.429008,61.497982 89.860359,72.705147 96.291710,83.912315 
z"/>
<path fill="#E3E3E3" opacity="1.000000" stroke="none" 
	d="
M117.848778,108.302193 
	C118.285141,107.205818 118.721497,106.109436 119.837234,104.896034 
	C124.136116,106.968323 127.755615,109.157639 131.545670,111.450119 
	C133.546021,108.700439 135.258667,106.346207 136.971329,103.991974 
	C138.047318,105.803223 139.123291,107.614464 140.199280,109.425713 
	C139.902039,109.816353 139.604797,110.206985 139.307556,110.597626 
	C141.026962,110.731705 142.746140,110.979065 144.465775,110.982231 
	C160.578781,111.011963 176.692078,111.040657 192.804688,110.956474 
	C195.256454,110.943665 197.705200,110.351494 200.577667,110.013641 
	C201.000000,120.020897 201.000000,130.041794 200.531342,140.531342 
	C182.094299,141.000000 164.125763,140.965332 146.157745,141.046539 
	C144.055267,141.056030 141.955673,141.704681 139.580750,141.873459 
	C134.207062,134.114838 129.036636,126.586037 124.039833,118.943718 
	C121.797119,115.513596 119.901756,111.856369 117.848778,108.302193 
z"/>
<path fill="#DFDFDF" opacity="1.000000" stroke="none" 
	d="
M139.854752,142.057007 
	C141.955673,141.704681 144.055267,141.056030 146.157745,141.046539 
	C164.125763,140.965332 182.094299,141.000000 200.531342,141.000000 
	C201.000000,152.354233 201.000000,163.708450 200.531342,175.531342 
	C189.762741,176.000000 179.462173,175.941086 169.163361,176.048981 
	C167.066360,176.070953 164.975952,176.720505 162.599411,176.898010 
	C154.829132,165.162491 147.341934,153.609756 139.854752,142.057007 
z"/>
<path fill="#EDEDED" opacity="1.000000" stroke="none" 
	d="
M132.966736,32.989464 
	C135.777222,28.779873 138.587708,24.570284 142.031250,20.241577 
	C145.163101,23.426147 148.495026,24.697008 152.528717,23.983250 
	C156.643494,23.255144 160.734421,22.392328 165.142395,21.683140 
	C169.802277,24.559511 174.155548,27.341234 178.616287,30.191618 
	C180.964401,27.123096 182.935654,24.547056 185.297607,22.026058 
	C190.792206,22.720734 195.896103,23.360367 201.000000,24.000000 
	C201.000000,32.020901 201.000000,40.041798 201.000000,48.531349 
	C190.660477,48.999813 180.320938,48.999622 169.532227,48.621513 
	C164.317780,44.615704 159.552521,40.987820 154.641342,37.248829 
	C152.711166,39.694332 151.396301,41.360233 150.081451,43.026138 
	C148.734619,43.917038 147.358780,44.767513 146.047791,45.708355 
	C144.107422,47.100872 142.377655,48.939751 140.243866,49.858608 
	C138.705093,50.521240 136.654510,50.010292 134.832382,49.997280 
	C128.159012,49.949635 127.860558,49.529629 129.588058,43.167194 
	C129.734436,42.628033 129.280136,41.925781 129.045197,40.642170 
	C130.312592,37.653183 131.639664,35.321323 132.966736,32.989464 
z"/>
<path fill="#10ACFC" opacity="1.000000" stroke="none" 
	d="
M32.873669,49.688812 
	C22.561550,49.792542 12.249433,49.896271 1.468657,50.000000 
	C1.000000,41.645767 1.000000,33.291538 1.454710,24.468674 
	C7.376734,24.754690 13.189157,21.671522 18.404964,25.453934 
	C18.446749,25.484232 18.842527,25.026386 19.361544,25.010113 
	C21.381607,29.039587 23.666664,30.484688 27.306067,27.209455 
	C28.098457,26.496353 29.300840,26.238832 30.758678,25.832682 
	C33.516853,25.885532 36.253716,26.379004 35.273289,22.423256 
	C35.272873,22.383776 35.299656,22.309494 35.758678,22.472326 
	C44.159920,24.028088 52.114162,25.574999 59.774712,21.067959 
	C65.507607,30.814943 71.041336,40.304962 76.575058,49.794979 
	C68.309250,49.862282 60.043446,49.929588 51.480656,49.675873 
	C51.634624,48.013817 52.821030,46.343384 52.396107,45.394646 
	C51.208591,42.743263 49.354309,40.390511 47.534779,37.565212 
	C42.620770,40.549053 37.926163,43.270794 33.422142,46.277977 
	C32.770641,46.712955 33.033783,48.517853 32.873669,49.688812 
z"/>
<path fill="#EFEFEF" opacity="1.000000" stroke="none" 
	d="
M164.835785,21.588493 
	C160.734421,22.392328 156.643494,23.255144 152.528717,23.983250 
	C148.495026,24.697008 145.163101,23.426147 142.312561,20.054581 
	C145.651245,13.896704 149.341644,7.806704 153.016022,1.358352 
	C168.900711,1.000000 184.801437,1.000000 201.000000,1.000000 
	C201.000000,8.351504 201.000000,15.707016 201.000000,23.531263 
	C195.896103,23.360367 190.792206,22.720734 185.335968,21.645447 
	C184.803360,20.437714 184.878632,19.249847 184.403381,18.957788 
	C179.582809,15.995337 174.672379,13.179097 169.628555,10.229120 
	C168.224411,12.295256 166.822983,13.797674 166.099289,15.575908 
	C165.339706,17.442373 165.229691,19.573198 164.835785,21.588493 
z"/>
<path fill="#B0B3B6" opacity="1.000000" stroke="none" 
	d="
M139.580750,141.873459 
	C147.341934,153.609756 154.829132,165.162491 162.676544,177.235779 
	C166.017685,182.345993 169.096100,186.876205 171.944733,191.546570 
	C173.802505,194.592377 175.326492,197.841797 177.000000,201.000000 
	C173.307098,201.000000 169.614182,201.000000 165.460632,201.000000 
	C159.575226,191.778015 154.150452,182.556015 148.447144,173.143280 
	C140.510742,159.544861 132.855057,146.135956 125.192314,132.731064 
	C124.201485,130.997757 123.174141,129.285294 121.937836,127.285004 
	C114.157425,113.934830 106.602882,100.862823 99.138901,87.213898 
	C99.757065,86.082848 100.284668,85.528717 100.812271,84.974594 
	C104.663963,90.323074 108.514259,95.672569 112.367989,101.019592 
	C114.013268,103.302406 115.665703,105.580063 117.581833,108.081131 
	C119.901756,111.856369 121.797119,115.513596 124.039833,118.943718 
	C129.036636,126.586037 134.207062,134.114838 139.580750,141.873459 
z"/>
<path fill="#0FAFFC" opacity="1.000000" stroke="none" 
	d="
M59.575542,20.810991 
	C52.114162,25.574999 44.159920,24.028088 36.023788,22.263493 
	C36.475410,21.008642 37.869530,19.718559 37.646183,19.307665 
	C36.082512,16.430954 34.244282,13.692797 32.322495,11.034211 
	C32.066544,10.680132 30.691469,10.752396 30.093969,11.088370 
	C25.316521,13.774731 20.601538,16.572182 15.797750,19.376278 
	C17.075798,21.491293 18.074409,23.143875 19.073021,24.796457 
	C18.842527,25.026386 18.446749,25.484232 18.404964,25.453934 
	C13.189157,21.671522 7.376734,24.754690 1.454710,24.000021 
	C1.000000,16.381575 1.000000,8.763151 1.000000,1.000000 
	C16.353968,1.000000 31.708326,1.000000 47.536842,1.362909 
	C51.865845,8.087543 55.720695,14.449267 59.575542,20.810991 
z"/>
<path fill="#DBDBDB" opacity="1.000000" stroke="none" 
	d="
M177.468689,201.000000 
	C175.326492,197.841797 173.802505,194.592377 171.944733,191.546570 
	C169.096100,186.876205 166.017685,182.345993 162.959641,177.418533 
	C164.975952,176.720505 167.066360,176.070953 169.163361,176.048981 
	C179.462173,175.941086 189.762741,176.000000 200.531342,176.000000 
	C201.000000,184.258179 201.000000,192.516373 201.000000,201.000000 
	C193.313919,201.000000 185.625656,201.000000 177.468689,201.000000 
z"/>
<path fill="#171B1D" opacity="1.000000" stroke="none" 
	d="
M59.774712,21.067959 
	C55.720695,14.449267 51.865845,8.087543 48.005501,1.362909 
	C49.066669,1.000000 50.133339,1.000000 51.600006,1.000000 
	C57.085575,8.910764 62.161163,16.827972 67.262329,24.728670 
	C68.966782,27.368523 70.736595,29.966171 72.878403,33.103790 
	C76.264267,38.222645 79.167122,42.875984 82.248566,47.407894 
	C89.425247,57.962711 96.687904,68.459061 103.915726,78.979103 
	C102.933174,80.754005 101.950615,82.528908 100.890167,84.639198 
	C100.284668,85.528717 99.757065,86.082848 99.050484,86.875710 
	C98.167595,86.171501 97.463684,85.228561 96.525742,84.098969 
	C89.860359,72.705147 83.429008,61.497982 76.786362,50.042896 
	C71.041336,40.304962 65.507607,30.814943 59.774712,21.067959 
z"/>
<path fill="#272B2D" opacity="1.000000" stroke="none" 
	d="
M79.572144,130.197632 
	C79.940865,128.943008 80.311302,127.521690 81.223938,126.912086 
	C85.442841,124.093948 89.812500,121.501511 94.608093,118.530884 
	C96.659790,122.059105 98.462845,125.159737 100.297981,128.633636 
	C96.768318,131.333832 93.069122,133.479126 89.684486,136.040131 
	C86.469437,138.472794 84.253822,138.361221 82.465782,134.538345 
	C81.778923,133.069824 80.715462,131.777466 79.572144,130.197632 
z"/>
<path fill="#272B2E" opacity="1.000000" stroke="none" 
	d="
M98.325790,153.412567 
	C101.014740,151.719315 103.554108,150.428284 105.750710,148.701294 
	C108.788841,146.312698 110.644218,146.567230 112.764374,150.047760 
	C116.660484,156.443710 116.858124,156.292160 110.319786,160.292694 
	C107.363670,162.101425 104.475220,164.020737 101.609047,165.855957 
	C95.267616,160.516815 94.147812,156.561234 98.325790,153.412567 
z"/>
<path fill="#272B2D" opacity="1.000000" stroke="none" 
	d="
M128.561752,178.118256 
	C132.175583,182.574615 130.625412,185.061050 126.141129,187.154190 
	C122.753830,188.735306 119.738220,191.112686 116.756256,193.009094 
	C116.040161,192.618713 115.655571,192.534821 115.483452,192.297073 
	C109.094299,183.472488 109.096985,183.470551 118.759598,177.141876 
	C119.431633,176.699951 119.947372,176.603607 120.287979,176.306503 
	C123.663094,173.362320 126.408241,173.395752 128.561752,178.118256 
z"/>
<path fill="#2A2D2F" opacity="1.000000" stroke="none" 
	d="
M51.702599,82.075584 
	C50.092838,79.615791 48.714069,77.390465 46.724110,74.178696 
	C51.707951,71.137932 56.938148,67.946854 62.683125,64.441704 
	C64.973633,67.980339 66.995949,71.104645 69.307846,74.676331 
	C66.136635,76.722832 63.262550,78.577583 60.192303,80.709167 
	C57.225792,80.922974 55.402634,86.627686 51.702599,82.075584 
z"/>
<path fill="#272B2D" opacity="1.000000" stroke="none" 
	d="
M77.265350,107.221054 
	C74.572029,108.880455 72.195801,110.359116 69.250740,112.191750 
	C67.099823,108.944893 65.046318,105.845078 62.559101,102.090561 
	C67.341805,99.062500 71.834381,96.090576 76.493080,93.407059 
	C77.186295,93.007751 78.927330,93.668892 79.710388,94.368843 
	C80.780876,95.325745 81.262772,96.908745 82.234718,98.014351 
	C85.116478,101.292366 84.173386,103.507385 80.527321,105.208710 
	C79.487259,105.694008 78.560928,106.423042 77.265350,107.221054 
z"/>
<path fill="#2D2D2D" opacity="1.000000" stroke="none" 
	d="
M104.173019,78.791389 
	C96.687904,68.459061 89.425247,57.962711 82.248566,47.407894 
	C79.167122,42.875984 76.264267,38.222645 73.142441,33.310333 
	C75.108742,32.664181 77.211243,32.057037 79.317276,32.044544 
	C93.624969,31.959661 107.933853,31.939882 122.241272,32.045513 
	C125.530701,32.069801 128.815918,32.663826 132.534912,32.992561 
	C131.639664,35.321323 130.312592,37.653183 128.901276,40.305382 
	C125.353424,45.912956 121.889801,51.200188 117.944466,56.797455 
	C117.627808,57.442169 117.792862,57.776852 117.957916,58.111534 
	C114.119949,63.863049 110.281990,69.614563 106.353180,75.683830 
	C105.651649,76.868942 105.040977,77.736305 104.173019,78.791389 
z"/>
<path fill="#313131" opacity="1.000000" stroke="none" 
	d="
M153.072861,75.620575 
	C150.903076,78.494003 148.855576,82.761047 146.397339,83.012497 
	C143.663651,83.292122 140.553040,79.917496 137.611984,78.124786 
	C136.350571,77.355904 135.102936,76.564392 133.510895,75.669685 
	C134.250000,71.749512 135.327255,67.942818 136.798126,62.745232 
	C142.737976,67.866020 149.862732,68.691818 153.072861,75.620575 
z"/>
<path fill="#323232" opacity="1.000000" stroke="none" 
	d="
M150.030685,43.370178 
	C151.396301,41.360233 152.711166,39.694332 154.641342,37.248829 
	C159.552521,40.987820 164.317780,44.615704 169.099930,48.622032 
	C162.742294,57.372120 162.737717,57.379375 153.411621,51.498535 
	C151.617310,50.367077 149.874557,49.153854 147.846924,47.804619 
	C148.652588,46.259624 149.316254,44.986927 150.030685,43.370178 
z"/>
<path fill="#EAEAEA" opacity="1.000000" stroke="none" 
	d="
M117.973450,57.849129 
	C117.792862,57.776852 117.627808,57.442169 117.731186,57.084290 
	C117.996071,57.236305 117.992523,57.411514 117.973450,57.849129 
z"/>
<path fill="#2D2D2D" opacity="1.000000" stroke="none" 
	d="
M137.033813,103.680969 
	C135.258667,106.346207 133.546021,108.700439 131.545670,111.450119 
	C127.755615,109.157639 124.136116,106.968323 120.225037,104.658630 
	C116.486656,102.872002 115.885384,100.693184 118.448990,97.635277 
	C119.903847,95.899910 121.029671,93.888718 122.548470,91.639198 
	C127.249237,94.573143 131.728439,97.244858 136.032349,100.174118 
	C136.770218,100.676323 136.760605,102.276825 137.033813,103.680969 
z"/>
<path fill="#2C3134" opacity="1.000000" stroke="none" 
	d="
M32.987629,49.990501 
	C33.033783,48.517853 32.770641,46.712955 33.422142,46.277977 
	C37.926163,43.270794 42.620770,40.549053 47.534779,37.565212 
	C49.354309,40.390511 51.208591,42.743263 52.396107,45.394646 
	C52.821030,46.343384 51.634624,48.013817 51.000557,49.673363 
	C48.127823,51.565666 45.245613,52.888931 42.794643,54.773159 
	C39.296333,57.462547 36.785816,57.698547 35.035522,53.054688 
	C34.651440,52.035648 33.759598,51.207985 32.987629,49.990501 
z"/>
<path fill="#363636" opacity="1.000000" stroke="none" 
	d="
M165.142395,21.683140 
	C165.229691,19.573198 165.339706,17.442373 166.099289,15.575908 
	C166.822983,13.797674 168.224411,12.295256 169.628555,10.229120 
	C174.672379,13.179097 179.582809,15.995337 184.403381,18.957788 
	C184.878632,19.249847 184.803360,20.437714 184.945251,21.590405 
	C182.935654,24.547056 180.964401,27.123096 178.616287,30.191618 
	C174.155548,27.341234 169.802277,24.559511 165.142395,21.683140 
z"/>
<path fill="#303437" opacity="1.000000" stroke="none" 
	d="
M19.361544,25.010113 
	C18.074409,23.143875 17.075798,21.491293 15.797750,19.376278 
	C20.601538,16.572182 25.316521,13.774731 30.093969,11.088370 
	C30.691469,10.752396 32.066544,10.680132 32.322495,11.034211 
	C34.244282,13.692797 36.082512,16.430954 37.646183,19.307665 
	C37.869530,19.718559 36.475410,21.008642 35.564766,22.100660 
	C35.299656,22.309494 35.272873,22.383776 34.983795,22.522245 
	C33.234612,23.697639 31.774504,24.734564 30.314396,25.771488 
	C29.300840,26.238832 28.098457,26.496353 27.306067,27.209455 
	C23.666664,30.484688 21.381607,29.039587 19.361544,25.010113 
z"/>
<path fill="#0FAFFC" opacity="1.000000" stroke="none" 
	d="
M30.758678,25.832684 
	C31.774504,24.734564 33.234612,23.697639 34.984211,22.561726 
	C36.253716,26.379004 33.516853,25.885532 30.758678,25.832684 
z"/>
</svg>